<?xml version="1.0" encoding="utf-8" standalone="no"?>
<!DOCTYPE svg PUBLIC "-//W3C//DTD SVG 1.1//EN"
  "http://www.w3.org/Graphics/SVG/1.1/DTD/svg11.dtd">
<!-- Created with matplotlib (http://matplotlib.org/) -->
<svg height="720pt" version="1.1" viewBox="0 0 1152 720" width="1152pt" xmlns="http://www.w3.org/2000/svg" xmlns:xlink="http://www.w3.org/1999/xlink">
 <defs>
  <style type="text/css">
*{stroke-linecap:butt;stroke-linejoin:round;}
  </style>
 </defs>
 <g id="figure_1">
  <g id="patch_1">
   <path d="M 0 720 
L 1152 720 
L 1152 0 
L 0 0 
z
" style="fill:#ffffff;"/>
  </g>
  <g id="axes_1">
   <g id="patch_2">
    <path d="M 144 630 
L 1036.8 630 
L 1036.8 86.4 
L 144 86.4 
z
" style="fill:#ffffff;"/>
   </g>
   <g id="matplotlib.axis_1">
    <g id="xtick_1">
     <g id="line2d_1">
      <defs>
       <path d="M 0 0 
L 0 3.5 
" id="m66054f31cb" style="stroke:#000000;stroke-width:0.8;"/>
      </defs>
      <g>
       <use style="stroke:#000000;stroke-width:0.8;" x="183.320146" xlink:href="#m66054f31cb" y="630"/>
      </g>
     </g>
     <g id="text_1">
      <!-- 0.00 -->
      <defs>
       <path d="M 31.78125 66.40625 
Q 24.171875 66.40625 20.328125 58.90625 
Q 16.5 51.421875 16.5 36.375 
Q 16.5 21.390625 20.328125 13.890625 
Q 24.171875 6.390625 31.78125 6.390625 
Q 39.453125 6.390625 43.28125 13.890625 
Q 47.125 21.390625 47.125 36.375 
Q 47.125 51.421875 43.28125 58.90625 
Q 39.453125 66.40625 31.78125 66.40625 
z
M 31.78125 74.21875 
Q 44.046875 74.21875 50.515625 64.515625 
Q 56.984375 54.828125 56.984375 36.375 
Q 56.984375 17.96875 50.515625 8.265625 
Q 44.046875 -1.421875 31.78125 -1.421875 
Q 19.53125 -1.421875 13.0625 8.265625 
Q 6.59375 17.96875 6.59375 36.375 
Q 6.59375 54.828125 13.0625 64.515625 
Q 19.53125 74.21875 31.78125 74.21875 
z
" id="DejaVuSans-30"/>
       <path d="M 10.6875 12.40625 
L 21 12.40625 
L 21 0 
L 10.6875 0 
z
" id="DejaVuSans-2e"/>
      </defs>
      <g transform="translate(172.187334 644.598438)scale(0.1 -0.1)">
       <use xlink:href="#DejaVuSans-30"/>
       <use x="63.623047" xlink:href="#DejaVuSans-2e"/>
       <use x="95.410156" xlink:href="#DejaVuSans-30"/>
       <use x="159.033203" xlink:href="#DejaVuSans-30"/>
      </g>
     </g>
    </g>
    <g id="xtick_2">
     <g id="line2d_2">
      <g>
       <use style="stroke:#000000;stroke-width:0.8;" x="310.074144" xlink:href="#m66054f31cb" y="630"/>
      </g>
     </g>
     <g id="text_2">
      <!-- 0.05 -->
      <defs>
       <path d="M 10.796875 72.90625 
L 49.515625 72.90625 
L 49.515625 64.59375 
L 19.828125 64.59375 
L 19.828125 46.734375 
Q 21.96875 47.46875 24.109375 47.828125 
Q 26.265625 48.1875 28.421875 48.1875 
Q 40.625 48.1875 47.75 41.5 
Q 54.890625 34.8125 54.890625 23.390625 
Q 54.890625 11.625 47.5625 5.09375 
Q 40.234375 -1.421875 26.90625 -1.421875 
Q 22.3125 -1.421875 17.546875 -0.640625 
Q 12.796875 0.140625 7.71875 1.703125 
L 7.71875 11.625 
Q 12.109375 9.234375 16.796875 8.0625 
Q 21.484375 6.890625 26.703125 6.890625 
Q 35.15625 6.890625 40.078125 11.328125 
Q 45.015625 15.765625 45.015625 23.390625 
Q 45.015625 31 40.078125 35.4375 
Q 35.15625 39.890625 26.703125 39.890625 
Q 22.75 39.890625 18.8125 39.015625 
Q 14.890625 38.140625 10.796875 36.28125 
z
" id="DejaVuSans-35"/>
      </defs>
      <g transform="translate(298.941332 644.598438)scale(0.1 -0.1)">
       <use xlink:href="#DejaVuSans-30"/>
       <use x="63.623047" xlink:href="#DejaVuSans-2e"/>
       <use x="95.410156" xlink:href="#DejaVuSans-30"/>
       <use x="159.033203" xlink:href="#DejaVuSans-35"/>
      </g>
     </g>
    </g>
    <g id="xtick_3">
     <g id="line2d_3">
      <g>
       <use style="stroke:#000000;stroke-width:0.8;" x="436.828142" xlink:href="#m66054f31cb" y="630"/>
      </g>
     </g>
     <g id="text_3">
      <!-- 0.10 -->
      <defs>
       <path d="M 12.40625 8.296875 
L 28.515625 8.296875 
L 28.515625 63.921875 
L 10.984375 60.40625 
L 10.984375 69.390625 
L 28.421875 72.90625 
L 38.28125 72.90625 
L 38.28125 8.296875 
L 54.390625 8.296875 
L 54.390625 0 
L 12.40625 0 
z
" id="DejaVuSans-31"/>
      </defs>
      <g transform="translate(425.69533 644.598438)scale(0.1 -0.1)">
       <use xlink:href="#DejaVuSans-30"/>
       <use x="63.623047" xlink:href="#DejaVuSans-2e"/>
       <use x="95.410156" xlink:href="#DejaVuSans-31"/>
       <use x="159.033203" xlink:href="#DejaVuSans-30"/>
      </g>
     </g>
    </g>
    <g id="xtick_4">
     <g id="line2d_4">
      <g>
       <use style="stroke:#000000;stroke-width:0.8;" x="563.58214" xlink:href="#m66054f31cb" y="630"/>
      </g>
     </g>
     <g id="text_4">
      <!-- 0.15 -->
      <g transform="translate(552.449328 644.598438)scale(0.1 -0.1)">
       <use xlink:href="#DejaVuSans-30"/>
       <use x="63.623047" xlink:href="#DejaVuSans-2e"/>
       <use x="95.410156" xlink:href="#DejaVuSans-31"/>
       <use x="159.033203" xlink:href="#DejaVuSans-35"/>
      </g>
     </g>
    </g>
    <g id="xtick_5">
     <g id="line2d_5">
      <g>
       <use style="stroke:#000000;stroke-width:0.8;" x="690.336138" xlink:href="#m66054f31cb" y="630"/>
      </g>
     </g>
     <g id="text_5">
      <!-- 0.20 -->
      <defs>
       <path d="M 19.1875 8.296875 
L 53.609375 8.296875 
L 53.609375 0 
L 7.328125 0 
L 7.328125 8.296875 
Q 12.9375 14.109375 22.625 23.890625 
Q 32.328125 33.6875 34.8125 36.53125 
Q 39.546875 41.84375 41.421875 45.53125 
Q 43.3125 49.21875 43.3125 52.78125 
Q 43.3125 58.59375 39.234375 62.25 
Q 35.15625 65.921875 28.609375 65.921875 
Q 23.96875 65.921875 18.8125 64.3125 
Q 13.671875 62.703125 7.8125 59.421875 
L 7.8125 69.390625 
Q 13.765625 71.78125 18.9375 73 
Q 24.125 74.21875 28.421875 74.21875 
Q 39.75 74.21875 46.484375 68.546875 
Q 53.21875 62.890625 53.21875 53.421875 
Q 53.21875 48.921875 51.53125 44.890625 
Q 49.859375 40.875 45.40625 35.40625 
Q 44.1875 33.984375 37.640625 27.21875 
Q 31.109375 20.453125 19.1875 8.296875 
z
" id="DejaVuSans-32"/>
      </defs>
      <g transform="translate(679.203326 644.598438)scale(0.1 -0.1)">
       <use xlink:href="#DejaVuSans-30"/>
       <use x="63.623047" xlink:href="#DejaVuSans-2e"/>
       <use x="95.410156" xlink:href="#DejaVuSans-32"/>
       <use x="159.033203" xlink:href="#DejaVuSans-30"/>
      </g>
     </g>
    </g>
    <g id="xtick_6">
     <g id="line2d_6">
      <g>
       <use style="stroke:#000000;stroke-width:0.8;" x="817.090136" xlink:href="#m66054f31cb" y="630"/>
      </g>
     </g>
     <g id="text_6">
      <!-- 0.25 -->
      <g transform="translate(805.957324 644.598438)scale(0.1 -0.1)">
       <use xlink:href="#DejaVuSans-30"/>
       <use x="63.623047" xlink:href="#DejaVuSans-2e"/>
       <use x="95.410156" xlink:href="#DejaVuSans-32"/>
       <use x="159.033203" xlink:href="#DejaVuSans-35"/>
      </g>
     </g>
    </g>
    <g id="xtick_7">
     <g id="line2d_7">
      <g>
       <use style="stroke:#000000;stroke-width:0.8;" x="943.844134" xlink:href="#m66054f31cb" y="630"/>
      </g>
     </g>
     <g id="text_7">
      <!-- 0.30 -->
      <defs>
       <path d="M 40.578125 39.3125 
Q 47.65625 37.796875 51.625 33 
Q 55.609375 28.21875 55.609375 21.1875 
Q 55.609375 10.40625 48.1875 4.484375 
Q 40.765625 -1.421875 27.09375 -1.421875 
Q 22.515625 -1.421875 17.65625 -0.515625 
Q 12.796875 0.390625 7.625 2.203125 
L 7.625 11.71875 
Q 11.71875 9.328125 16.59375 8.109375 
Q 21.484375 6.890625 26.8125 6.890625 
Q 36.078125 6.890625 40.9375 10.546875 
Q 45.796875 14.203125 45.796875 21.1875 
Q 45.796875 27.640625 41.28125 31.265625 
Q 36.765625 34.90625 28.71875 34.90625 
L 20.21875 34.90625 
L 20.21875 43.015625 
L 29.109375 43.015625 
Q 36.375 43.015625 40.234375 45.921875 
Q 44.09375 48.828125 44.09375 54.296875 
Q 44.09375 59.90625 40.109375 62.90625 
Q 36.140625 65.921875 28.71875 65.921875 
Q 24.65625 65.921875 20.015625 65.03125 
Q 15.375 64.15625 9.8125 62.3125 
L 9.8125 71.09375 
Q 15.4375 72.65625 20.34375 73.4375 
Q 25.25 74.21875 29.59375 74.21875 
Q 40.828125 74.21875 47.359375 69.109375 
Q 53.90625 64.015625 53.90625 55.328125 
Q 53.90625 49.265625 50.4375 45.09375 
Q 46.96875 40.921875 40.578125 39.3125 
z
" id="DejaVuSans-33"/>
      </defs>
      <g transform="translate(932.711322 644.598438)scale(0.1 -0.1)">
       <use xlink:href="#DejaVuSans-30"/>
       <use x="63.623047" xlink:href="#DejaVuSans-2e"/>
       <use x="95.410156" xlink:href="#DejaVuSans-33"/>
       <use x="159.033203" xlink:href="#DejaVuSans-30"/>
      </g>
     </g>
    </g>
    <g id="text_8">
     <!-- wall-clock time (days) -->
     <defs>
      <path d="M 4.203125 54.6875 
L 13.1875 54.6875 
L 24.421875 12.015625 
L 35.59375 54.6875 
L 46.1875 54.6875 
L 57.421875 12.015625 
L 68.609375 54.6875 
L 77.59375 54.6875 
L 63.28125 0 
L 52.6875 0 
L 40.921875 44.828125 
L 29.109375 0 
L 18.5 0 
z
" id="DejaVuSans-77"/>
      <path d="M 34.28125 27.484375 
Q 23.390625 27.484375 19.1875 25 
Q 14.984375 22.515625 14.984375 16.5 
Q 14.984375 11.71875 18.140625 8.90625 
Q 21.296875 6.109375 26.703125 6.109375 
Q 34.1875 6.109375 38.703125 11.40625 
Q 43.21875 16.703125 43.21875 25.484375 
L 43.21875 27.484375 
z
M 52.203125 31.203125 
L 52.203125 0 
L 43.21875 0 
L 43.21875 8.296875 
Q 40.140625 3.328125 35.546875 0.953125 
Q 30.953125 -1.421875 24.3125 -1.421875 
Q 15.921875 -1.421875 10.953125 3.296875 
Q 6 8.015625 6 15.921875 
Q 6 25.140625 12.171875 29.828125 
Q 18.359375 34.515625 30.609375 34.515625 
L 43.21875 34.515625 
L 43.21875 35.40625 
Q 43.21875 41.609375 39.140625 45 
Q 35.0625 48.390625 27.6875 48.390625 
Q 23 48.390625 18.546875 47.265625 
Q 14.109375 46.140625 10.015625 43.890625 
L 10.015625 52.203125 
Q 14.9375 54.109375 19.578125 55.046875 
Q 24.21875 56 28.609375 56 
Q 40.484375 56 46.34375 49.84375 
Q 52.203125 43.703125 52.203125 31.203125 
z
" id="DejaVuSans-61"/>
      <path d="M 9.421875 75.984375 
L 18.40625 75.984375 
L 18.40625 0 
L 9.421875 0 
z
" id="DejaVuSans-6c"/>
      <path d="M 4.890625 31.390625 
L 31.203125 31.390625 
L 31.203125 23.390625 
L 4.890625 23.390625 
z
" id="DejaVuSans-2d"/>
      <path d="M 48.78125 52.59375 
L 48.78125 44.1875 
Q 44.96875 46.296875 41.140625 47.34375 
Q 37.3125 48.390625 33.40625 48.390625 
Q 24.65625 48.390625 19.8125 42.84375 
Q 14.984375 37.3125 14.984375 27.296875 
Q 14.984375 17.28125 19.8125 11.734375 
Q 24.65625 6.203125 33.40625 6.203125 
Q 37.3125 6.203125 41.140625 7.25 
Q 44.96875 8.296875 48.78125 10.40625 
L 48.78125 2.09375 
Q 45.015625 0.34375 40.984375 -0.53125 
Q 36.96875 -1.421875 32.421875 -1.421875 
Q 20.0625 -1.421875 12.78125 6.34375 
Q 5.515625 14.109375 5.515625 27.296875 
Q 5.515625 40.671875 12.859375 48.328125 
Q 20.21875 56 33.015625 56 
Q 37.15625 56 41.109375 55.140625 
Q 45.0625 54.296875 48.78125 52.59375 
z
" id="DejaVuSans-63"/>
      <path d="M 30.609375 48.390625 
Q 23.390625 48.390625 19.1875 42.75 
Q 14.984375 37.109375 14.984375 27.296875 
Q 14.984375 17.484375 19.15625 11.84375 
Q 23.34375 6.203125 30.609375 6.203125 
Q 37.796875 6.203125 41.984375 11.859375 
Q 46.1875 17.53125 46.1875 27.296875 
Q 46.1875 37.015625 41.984375 42.703125 
Q 37.796875 48.390625 30.609375 48.390625 
z
M 30.609375 56 
Q 42.328125 56 49.015625 48.375 
Q 55.71875 40.765625 55.71875 27.296875 
Q 55.71875 13.875 49.015625 6.21875 
Q 42.328125 -1.421875 30.609375 -1.421875 
Q 18.84375 -1.421875 12.171875 6.21875 
Q 5.515625 13.875 5.515625 27.296875 
Q 5.515625 40.765625 12.171875 48.375 
Q 18.84375 56 30.609375 56 
z
" id="DejaVuSans-6f"/>
      <path d="M 9.078125 75.984375 
L 18.109375 75.984375 
L 18.109375 31.109375 
L 44.921875 54.6875 
L 56.390625 54.6875 
L 27.390625 29.109375 
L 57.625 0 
L 45.90625 0 
L 18.109375 26.703125 
L 18.109375 0 
L 9.078125 0 
z
" id="DejaVuSans-6b"/>
      <path id="DejaVuSans-20"/>
      <path d="M 18.3125 70.21875 
L 18.3125 54.6875 
L 36.8125 54.6875 
L 36.8125 47.703125 
L 18.3125 47.703125 
L 18.3125 18.015625 
Q 18.3125 11.328125 20.140625 9.421875 
Q 21.96875 7.515625 27.59375 7.515625 
L 36.8125 7.515625 
L 36.8125 0 
L 27.59375 0 
Q 17.1875 0 13.234375 3.875 
Q 9.28125 7.765625 9.28125 18.015625 
L 9.28125 47.703125 
L 2.6875 47.703125 
L 2.6875 54.6875 
L 9.28125 54.6875 
L 9.28125 70.21875 
z
" id="DejaVuSans-74"/>
      <path d="M 9.421875 54.6875 
L 18.40625 54.6875 
L 18.40625 0 
L 9.421875 0 
z
M 9.421875 75.984375 
L 18.40625 75.984375 
L 18.40625 64.59375 
L 9.421875 64.59375 
z
" id="DejaVuSans-69"/>
      <path d="M 52 44.1875 
Q 55.375 50.25 60.0625 53.125 
Q 64.75 56 71.09375 56 
Q 79.640625 56 84.28125 50.015625 
Q 88.921875 44.046875 88.921875 33.015625 
L 88.921875 0 
L 79.890625 0 
L 79.890625 32.71875 
Q 79.890625 40.578125 77.09375 44.375 
Q 74.3125 48.1875 68.609375 48.1875 
Q 61.625 48.1875 57.5625 43.546875 
Q 53.515625 38.921875 53.515625 30.90625 
L 53.515625 0 
L 44.484375 0 
L 44.484375 32.71875 
Q 44.484375 40.625 41.703125 44.40625 
Q 38.921875 48.1875 33.109375 48.1875 
Q 26.21875 48.1875 22.15625 43.53125 
Q 18.109375 38.875 18.109375 30.90625 
L 18.109375 0 
L 9.078125 0 
L 9.078125 54.6875 
L 18.109375 54.6875 
L 18.109375 46.1875 
Q 21.1875 51.21875 25.484375 53.609375 
Q 29.78125 56 35.6875 56 
Q 41.65625 56 45.828125 52.96875 
Q 50 49.953125 52 44.1875 
z
" id="DejaVuSans-6d"/>
      <path d="M 56.203125 29.59375 
L 56.203125 25.203125 
L 14.890625 25.203125 
Q 15.484375 15.921875 20.484375 11.0625 
Q 25.484375 6.203125 34.421875 6.203125 
Q 39.59375 6.203125 44.453125 7.46875 
Q 49.3125 8.734375 54.109375 11.28125 
L 54.109375 2.78125 
Q 49.265625 0.734375 44.1875 -0.34375 
Q 39.109375 -1.421875 33.890625 -1.421875 
Q 20.796875 -1.421875 13.15625 6.1875 
Q 5.515625 13.8125 5.515625 26.8125 
Q 5.515625 40.234375 12.765625 48.109375 
Q 20.015625 56 32.328125 56 
Q 43.359375 56 49.78125 48.890625 
Q 56.203125 41.796875 56.203125 29.59375 
z
M 47.21875 32.234375 
Q 47.125 39.59375 43.09375 43.984375 
Q 39.0625 48.390625 32.421875 48.390625 
Q 24.90625 48.390625 20.390625 44.140625 
Q 15.875 39.890625 15.1875 32.171875 
z
" id="DejaVuSans-65"/>
      <path d="M 31 75.875 
Q 24.46875 64.65625 21.28125 53.65625 
Q 18.109375 42.671875 18.109375 31.390625 
Q 18.109375 20.125 21.3125 9.0625 
Q 24.515625 -2 31 -13.1875 
L 23.1875 -13.1875 
Q 15.875 -1.703125 12.234375 9.375 
Q 8.59375 20.453125 8.59375 31.390625 
Q 8.59375 42.28125 12.203125 53.3125 
Q 15.828125 64.359375 23.1875 75.875 
z
" id="DejaVuSans-28"/>
      <path d="M 45.40625 46.390625 
L 45.40625 75.984375 
L 54.390625 75.984375 
L 54.390625 0 
L 45.40625 0 
L 45.40625 8.203125 
Q 42.578125 3.328125 38.25 0.953125 
Q 33.9375 -1.421875 27.875 -1.421875 
Q 17.96875 -1.421875 11.734375 6.484375 
Q 5.515625 14.40625 5.515625 27.296875 
Q 5.515625 40.1875 11.734375 48.09375 
Q 17.96875 56 27.875 56 
Q 33.9375 56 38.25 53.625 
Q 42.578125 51.265625 45.40625 46.390625 
z
M 14.796875 27.296875 
Q 14.796875 17.390625 18.875 11.75 
Q 22.953125 6.109375 30.078125 6.109375 
Q 37.203125 6.109375 41.296875 11.75 
Q 45.40625 17.390625 45.40625 27.296875 
Q 45.40625 37.203125 41.296875 42.84375 
Q 37.203125 48.484375 30.078125 48.484375 
Q 22.953125 48.484375 18.875 42.84375 
Q 14.796875 37.203125 14.796875 27.296875 
z
" id="DejaVuSans-64"/>
      <path d="M 32.171875 -5.078125 
Q 28.375 -14.84375 24.75 -17.8125 
Q 21.140625 -20.796875 15.09375 -20.796875 
L 7.90625 -20.796875 
L 7.90625 -13.28125 
L 13.1875 -13.28125 
Q 16.890625 -13.28125 18.9375 -11.515625 
Q 21 -9.765625 23.484375 -3.21875 
L 25.09375 0.875 
L 2.984375 54.6875 
L 12.5 54.6875 
L 29.59375 11.921875 
L 46.6875 54.6875 
L 56.203125 54.6875 
z
" id="DejaVuSans-79"/>
      <path d="M 44.28125 53.078125 
L 44.28125 44.578125 
Q 40.484375 46.53125 36.375 47.5 
Q 32.28125 48.484375 27.875 48.484375 
Q 21.1875 48.484375 17.84375 46.4375 
Q 14.5 44.390625 14.5 40.28125 
Q 14.5 37.15625 16.890625 35.375 
Q 19.28125 33.59375 26.515625 31.984375 
L 29.59375 31.296875 
Q 39.15625 29.25 43.1875 25.515625 
Q 47.21875 21.78125 47.21875 15.09375 
Q 47.21875 7.46875 41.1875 3.015625 
Q 35.15625 -1.421875 24.609375 -1.421875 
Q 20.21875 -1.421875 15.453125 -0.5625 
Q 10.6875 0.296875 5.421875 2 
L 5.421875 11.28125 
Q 10.40625 8.6875 15.234375 7.390625 
Q 20.0625 6.109375 24.8125 6.109375 
Q 31.15625 6.109375 34.5625 8.28125 
Q 37.984375 10.453125 37.984375 14.40625 
Q 37.984375 18.0625 35.515625 20.015625 
Q 33.0625 21.96875 24.703125 23.78125 
L 21.578125 24.515625 
Q 13.234375 26.265625 9.515625 29.90625 
Q 5.8125 33.546875 5.8125 39.890625 
Q 5.8125 47.609375 11.28125 51.796875 
Q 16.75 56 26.8125 56 
Q 31.78125 56 36.171875 55.265625 
Q 40.578125 54.546875 44.28125 53.078125 
z
" id="DejaVuSans-73"/>
      <path d="M 8.015625 75.875 
L 15.828125 75.875 
Q 23.140625 64.359375 26.78125 53.3125 
Q 30.421875 42.28125 30.421875 31.390625 
Q 30.421875 20.453125 26.78125 9.375 
Q 23.140625 -1.703125 15.828125 -13.1875 
L 8.015625 -13.1875 
Q 14.5 -2 17.703125 9.0625 
Q 20.90625 20.125 20.90625 31.390625 
Q 20.90625 42.671875 17.703125 53.65625 
Q 14.5 64.65625 8.015625 75.875 
z
" id="DejaVuSans-29"/>
     </defs>
     <g transform="translate(535.644531 658.276562)scale(0.1 -0.1)">
      <use xlink:href="#DejaVuSans-77"/>
      <use x="81.787109" xlink:href="#DejaVuSans-61"/>
      <use x="143.066406" xlink:href="#DejaVuSans-6c"/>
      <use x="170.849609" xlink:href="#DejaVuSans-6c"/>
      <use x="198.632812" xlink:href="#DejaVuSans-2d"/>
      <use x="234.716797" xlink:href="#DejaVuSans-63"/>
      <use x="289.697266" xlink:href="#DejaVuSans-6c"/>
      <use x="317.480469" xlink:href="#DejaVuSans-6f"/>
      <use x="378.662109" xlink:href="#DejaVuSans-63"/>
      <use x="433.642578" xlink:href="#DejaVuSans-6b"/>
      <use x="491.552734" xlink:href="#DejaVuSans-20"/>
      <use x="523.339844" xlink:href="#DejaVuSans-74"/>
      <use x="562.548828" xlink:href="#DejaVuSans-69"/>
      <use x="590.332031" xlink:href="#DejaVuSans-6d"/>
      <use x="687.744141" xlink:href="#DejaVuSans-65"/>
      <use x="749.267578" xlink:href="#DejaVuSans-20"/>
      <use x="781.054688" xlink:href="#DejaVuSans-28"/>
      <use x="820.068359" xlink:href="#DejaVuSans-64"/>
      <use x="883.544922" xlink:href="#DejaVuSans-61"/>
      <use x="944.824219" xlink:href="#DejaVuSans-79"/>
      <use x="1004.003906" xlink:href="#DejaVuSans-73"/>
      <use x="1056.103516" xlink:href="#DejaVuSans-29"/>
     </g>
    </g>
   </g>
   <g id="matplotlib.axis_2">
    <g id="ytick_1">
     <g id="line2d_8">
      <defs>
       <path d="M 0 0 
L -3.5 0 
" id="m22ad740d26" style="stroke:#000000;stroke-width:0.8;"/>
      </defs>
      <g>
       <use style="stroke:#000000;stroke-width:0.8;" x="144" xlink:href="#m22ad740d26" y="581.910912"/>
      </g>
     </g>
     <g id="text_9">
      <!-- 200 -->
      <g transform="translate(117.9125 585.71013)scale(0.1 -0.1)">
       <use xlink:href="#DejaVuSans-32"/>
       <use x="63.623047" xlink:href="#DejaVuSans-30"/>
       <use x="127.246094" xlink:href="#DejaVuSans-30"/>
      </g>
     </g>
    </g>
    <g id="ytick_2">
     <g id="line2d_9">
      <g>
       <use style="stroke:#000000;stroke-width:0.8;" x="144" xlink:href="#m22ad740d26" y="476.238607"/>
      </g>
     </g>
     <g id="text_10">
      <!-- 400 -->
      <defs>
       <path d="M 37.796875 64.3125 
L 12.890625 25.390625 
L 37.796875 25.390625 
z
M 35.203125 72.90625 
L 47.609375 72.90625 
L 47.609375 25.390625 
L 58.015625 25.390625 
L 58.015625 17.1875 
L 47.609375 17.1875 
L 47.609375 0 
L 37.796875 0 
L 37.796875 17.1875 
L 4.890625 17.1875 
L 4.890625 26.703125 
z
" id="DejaVuSans-34"/>
      </defs>
      <g transform="translate(117.9125 480.037825)scale(0.1 -0.1)">
       <use xlink:href="#DejaVuSans-34"/>
       <use x="63.623047" xlink:href="#DejaVuSans-30"/>
       <use x="127.246094" xlink:href="#DejaVuSans-30"/>
      </g>
     </g>
    </g>
    <g id="ytick_3">
     <g id="line2d_10">
      <g>
       <use style="stroke:#000000;stroke-width:0.8;" x="144" xlink:href="#m22ad740d26" y="370.566301"/>
      </g>
     </g>
     <g id="text_11">
      <!-- 600 -->
      <defs>
       <path d="M 33.015625 40.375 
Q 26.375 40.375 22.484375 35.828125 
Q 18.609375 31.296875 18.609375 23.390625 
Q 18.609375 15.53125 22.484375 10.953125 
Q 26.375 6.390625 33.015625 6.390625 
Q 39.65625 6.390625 43.53125 10.953125 
Q 47.40625 15.53125 47.40625 23.390625 
Q 47.40625 31.296875 43.53125 35.828125 
Q 39.65625 40.375 33.015625 40.375 
z
M 52.59375 71.296875 
L 52.59375 62.3125 
Q 48.875 64.0625 45.09375 64.984375 
Q 41.3125 65.921875 37.59375 65.921875 
Q 27.828125 65.921875 22.671875 59.328125 
Q 17.53125 52.734375 16.796875 39.40625 
Q 19.671875 43.65625 24.015625 45.921875 
Q 28.375 48.1875 33.59375 48.1875 
Q 44.578125 48.1875 50.953125 41.515625 
Q 57.328125 34.859375 57.328125 23.390625 
Q 57.328125 12.15625 50.6875 5.359375 
Q 44.046875 -1.421875 33.015625 -1.421875 
Q 20.359375 -1.421875 13.671875 8.265625 
Q 6.984375 17.96875 6.984375 36.375 
Q 6.984375 53.65625 15.1875 63.9375 
Q 23.390625 74.21875 37.203125 74.21875 
Q 40.921875 74.21875 44.703125 73.484375 
Q 48.484375 72.75 52.59375 71.296875 
z
" id="DejaVuSans-36"/>
      </defs>
      <g transform="translate(117.9125 374.36552)scale(0.1 -0.1)">
       <use xlink:href="#DejaVuSans-36"/>
       <use x="63.623047" xlink:href="#DejaVuSans-30"/>
       <use x="127.246094" xlink:href="#DejaVuSans-30"/>
      </g>
     </g>
    </g>
    <g id="ytick_4">
     <g id="line2d_11">
      <g>
       <use style="stroke:#000000;stroke-width:0.8;" x="144" xlink:href="#m22ad740d26" y="264.893996"/>
      </g>
     </g>
     <g id="text_12">
      <!-- 800 -->
      <defs>
       <path d="M 31.78125 34.625 
Q 24.75 34.625 20.71875 30.859375 
Q 16.703125 27.09375 16.703125 20.515625 
Q 16.703125 13.921875 20.71875 10.15625 
Q 24.75 6.390625 31.78125 6.390625 
Q 38.8125 6.390625 42.859375 10.171875 
Q 46.921875 13.96875 46.921875 20.515625 
Q 46.921875 27.09375 42.890625 30.859375 
Q 38.875 34.625 31.78125 34.625 
z
M 21.921875 38.8125 
Q 15.578125 40.375 12.03125 44.71875 
Q 8.5 49.078125 8.5 55.328125 
Q 8.5 64.0625 14.71875 69.140625 
Q 20.953125 74.21875 31.78125 74.21875 
Q 42.671875 74.21875 48.875 69.140625 
Q 55.078125 64.0625 55.078125 55.328125 
Q 55.078125 49.078125 51.53125 44.71875 
Q 48 40.375 41.703125 38.8125 
Q 48.828125 37.15625 52.796875 32.3125 
Q 56.78125 27.484375 56.78125 20.515625 
Q 56.78125 9.90625 50.3125 4.234375 
Q 43.84375 -1.421875 31.78125 -1.421875 
Q 19.734375 -1.421875 13.25 4.234375 
Q 6.78125 9.90625 6.78125 20.515625 
Q 6.78125 27.484375 10.78125 32.3125 
Q 14.796875 37.15625 21.921875 38.8125 
z
M 18.3125 54.390625 
Q 18.3125 48.734375 21.84375 45.5625 
Q 25.390625 42.390625 31.78125 42.390625 
Q 38.140625 42.390625 41.71875 45.5625 
Q 45.3125 48.734375 45.3125 54.390625 
Q 45.3125 60.0625 41.71875 63.234375 
Q 38.140625 66.40625 31.78125 66.40625 
Q 25.390625 66.40625 21.84375 63.234375 
Q 18.3125 60.0625 18.3125 54.390625 
z
" id="DejaVuSans-38"/>
      </defs>
      <g transform="translate(117.9125 268.693215)scale(0.1 -0.1)">
       <use xlink:href="#DejaVuSans-38"/>
       <use x="63.623047" xlink:href="#DejaVuSans-30"/>
       <use x="127.246094" xlink:href="#DejaVuSans-30"/>
      </g>
     </g>
    </g>
    <g id="ytick_5">
     <g id="line2d_12">
      <g>
       <use style="stroke:#000000;stroke-width:0.8;" x="144" xlink:href="#m22ad740d26" y="159.221691"/>
      </g>
     </g>
     <g id="text_13">
      <!-- 1000 -->
      <g transform="translate(111.55 163.02091)scale(0.1 -0.1)">
       <use xlink:href="#DejaVuSans-31"/>
       <use x="63.623047" xlink:href="#DejaVuSans-30"/>
       <use x="127.246094" xlink:href="#DejaVuSans-30"/>
       <use x="190.869141" xlink:href="#DejaVuSans-30"/>
      </g>
     </g>
    </g>
    <g id="text_14">
     <!-- cumulative reward -->
     <defs>
      <path d="M 8.5 21.578125 
L 8.5 54.6875 
L 17.484375 54.6875 
L 17.484375 21.921875 
Q 17.484375 14.15625 20.5 10.265625 
Q 23.53125 6.390625 29.59375 6.390625 
Q 36.859375 6.390625 41.078125 11.03125 
Q 45.3125 15.671875 45.3125 23.6875 
L 45.3125 54.6875 
L 54.296875 54.6875 
L 54.296875 0 
L 45.3125 0 
L 45.3125 8.40625 
Q 42.046875 3.421875 37.71875 1 
Q 33.40625 -1.421875 27.6875 -1.421875 
Q 18.265625 -1.421875 13.375 4.4375 
Q 8.5 10.296875 8.5 21.578125 
z
M 31.109375 56 
z
" id="DejaVuSans-75"/>
      <path d="M 2.984375 54.6875 
L 12.5 54.6875 
L 29.59375 8.796875 
L 46.6875 54.6875 
L 56.203125 54.6875 
L 35.6875 0 
L 23.484375 0 
z
" id="DejaVuSans-76"/>
      <path d="M 41.109375 46.296875 
Q 39.59375 47.171875 37.8125 47.578125 
Q 36.03125 48 33.890625 48 
Q 26.265625 48 22.1875 43.046875 
Q 18.109375 38.09375 18.109375 28.8125 
L 18.109375 0 
L 9.078125 0 
L 9.078125 54.6875 
L 18.109375 54.6875 
L 18.109375 46.1875 
Q 20.953125 51.171875 25.484375 53.578125 
Q 30.03125 56 36.53125 56 
Q 37.453125 56 38.578125 55.875 
Q 39.703125 55.765625 41.0625 55.515625 
z
" id="DejaVuSans-72"/>
     </defs>
     <g transform="translate(105.470312 405.096875)rotate(-90)scale(0.1 -0.1)">
      <use xlink:href="#DejaVuSans-63"/>
      <use x="54.980469" xlink:href="#DejaVuSans-75"/>
      <use x="118.359375" xlink:href="#DejaVuSans-6d"/>
      <use x="215.771484" xlink:href="#DejaVuSans-75"/>
      <use x="279.150391" xlink:href="#DejaVuSans-6c"/>
      <use x="306.933594" xlink:href="#DejaVuSans-61"/>
      <use x="368.212891" xlink:href="#DejaVuSans-74"/>
      <use x="407.421875" xlink:href="#DejaVuSans-69"/>
      <use x="435.205078" xlink:href="#DejaVuSans-76"/>
      <use x="494.384766" xlink:href="#DejaVuSans-65"/>
      <use x="555.908203" xlink:href="#DejaVuSans-20"/>
      <use x="587.695312" xlink:href="#DejaVuSans-72"/>
      <use x="628.777344" xlink:href="#DejaVuSans-65"/>
      <use x="690.300781" xlink:href="#DejaVuSans-77"/>
      <use x="772.087891" xlink:href="#DejaVuSans-61"/>
      <use x="833.367188" xlink:href="#DejaVuSans-72"/>
      <use x="874.464844" xlink:href="#DejaVuSans-64"/>
     </g>
    </g>
   </g>
   <g id="line2d_13">
    <path clip-path="url(#pcd69ea7818)" d="M 184.581818 549.046825 
L 185.286007 555.535104 
L 186.195584 542.431738 
L 186.958456 537.417588 
L 187.838692 539.356674 
L 188.660245 533.671504 
L 189.51114 532.012449 
L 190.626106 518.132392 
L 191.506342 524.129295 
L 192.533284 509.831832 
L 193.706932 500.099413 
L 194.792557 489.304987 
L 195.84884 487.947098 
L 196.875782 488.200711 
L 197.990748 483.049187 
L 199.076373 491.783003 
L 200.191338 483.688504 
L 201.21828 490.953475 
L 202.42127 476.666579 
L 203.594918 468.101839 
L 204.827248 467.584045 
L 206.352991 456.1186 
L 207.497298 481.485236 
L 208.817652 452.890311 
L 209.961959 475.171316 
L 212.837397 455.252087 
L 214.157751 433.351502 
L 215.654152 443.437923 
L 216.886483 465.734779 
L 218.206837 466.516754 
L 219.703238 411.963427 
L 221.228981 419.688073 
L 222.637359 437.509707 
L 223.957713 436.246923 
L 225.424773 428.522277 
L 226.921174 408.111671 
L 228.476258 405.189832 
L 230.119366 423.51341 
L 231.674449 403.335283 
L 233.229533 416.359395 
L 234.872641 438.983835 
L 236.427724 393.645133 
L 237.894784 389.608451 
L 239.508551 406.600558 
L 241.004952 427.486689 
L 242.41333 409.691472 
L 244.056437 386.306191 
L 245.552838 403.13979 
L 247.342652 407.688982 
L 248.809712 395.932938 
L 252.007903 428.638517 
L 253.328257 425.854052 
L 254.942024 396.878705 
L 256.438425 398.696269 
L 258.110873 378.391336 
L 259.636616 409.025737 
L 261.1917 391.996645 
L 262.629419 427.174955 
L 264.213844 408.412838 
L 265.710245 380.615738 
L 267.324011 384.884899 
L 268.879095 411.619992 
L 270.287473 417.220624 
L 271.666509 417.035698 
L 273.192252 410.621389 
L 274.717994 392.540857 
L 276.243737 399.72129 
L 277.652115 415.038491 
L 279.295222 391.758882 
L 280.791624 402.378949 
L 282.200001 422.726151 
L 284.019156 388.969133 
L 285.57424 396.276373 
L 287.246688 396.218254 
L 288.74309 390.828966 
L 292.058646 388.641549 
L 293.643071 403.816092 
L 295.256837 401.031627 
L 296.899944 405.512133 
L 298.51371 406.553005 
L 299.98077 398.14149 
L 301.565195 402.194022 
L 303.325668 390.041707 
L 304.880751 385.973324 
L 306.406494 391.468283 
L 307.873554 407.678415 
L 309.604685 381.582639 
L 311.570546 372.531806 
L 313.213653 398.981584 
L 314.798078 394.479944 
L 316.382503 382.988081 
L 318.02561 388.461906 
L 319.668718 387.019479 
L 321.634578 367.211206 
L 323.072297 408.074686 
L 324.451334 417.019847 
L 325.977077 380.621021 
L 327.620184 386.84512 
L 329.204609 377.720317 
L 330.671669 414.156127 
L 333.86986 388.874028 
L 335.395603 397.401783 
L 336.921345 391.817002 
L 338.447088 394.136509 
L 340.148878 373.831576 
L 341.67462 401.063329 
L 343.347069 383.933848 
L 344.960835 391.986078 
L 346.427895 401.628676 
L 347.836273 391.531687 
L 349.273992 397.491605 
L 350.799734 407.83164 
L 352.442842 390.65989 
L 354.056608 384.382955 
L 355.670374 389.238598 
L 357.401505 376.145799 
L 359.015271 386.855687 
L 360.511673 406.029927 
L 362.15478 373.065452 
L 363.592499 408.07997 
L 366.996079 378.386052 
L 368.580504 398.807225 
L 370.370317 375.390242 
L 371.984083 368.738171 
L 375.32898 383.009215 
L 377.03077 387.954679 
L 378.556513 375.622721 
L 380.170279 380.975024 
L 381.696021 388.35095 
L 383.544517 383.770056 
L 385.275648 373.894979 
L 386.860073 398.696269 
L 388.415157 387.458019 
L 389.970241 383.759489 
L 391.760054 385.825382 
L 393.285797 394.051971 
L 394.84088 370.455346 
L 396.572011 384.610151 
L 398.068413 381.952492 
L 399.623497 374.201429 
L 401.119898 379.796777 
L 402.733664 389.497495 
L 404.230066 392.477454 
L 405.697126 396.413747 
L 407.076162 418.414721 
L 408.660587 389.883199 
L 410.127647 394.664871 
L 411.829437 391.737748 
L 413.35518 409.01517 
L 416.582712 399.03442 
L 418.167137 389.851497 
L 419.751562 401.607541 
L 421.277305 396.170701 
L 422.744365 385.804248 
L 424.416813 401.924558 
L 425.854532 409.078573 
L 427.380275 398.194326 
L 428.906017 392.128735 
L 430.402419 387.394616 
L 431.869479 403.604748 
L 433.453904 391.135416 
L 435.155694 412.169488 
L 436.681436 400.841417 
L 438.207179 407.139486 
L 439.732921 391.71133 
L 441.111958 405.675925 
L 444.632902 362.566908 
L 446.246669 392.377065 
L 447.831094 378.581546 
L 449.356836 379.437492 
L 451.087967 370.465913 
L 452.555027 401.274673 
L 454.139452 370.978423 
L 457.366985 366.101647 
L 459.068774 390.892369 
L 460.741223 395.27777 
L 462.178942 388.620415 
L 463.939414 388.224144 
L 465.55318 379.300118 
L 467.078923 386.739448 
L 468.751371 372.928078 
L 471.744174 400.302488 
L 473.181893 388.805341 
L 474.795659 386.448849 
L 476.321402 382.544257 
L 478.081874 372.389149 
L 479.69564 391.019176 
L 481.368089 400.307772 
L 482.923173 365.198148 
L 484.507598 388.144889 
L 486.297411 370.291554 
L 487.881836 388.065635 
L 489.612967 366.143916 
L 491.226733 375.501198 
L 492.723134 392.350647 
L 494.336901 378.639666 
L 496.009349 383.722503 
L 499.178199 376.98061 
L 500.703942 397.565575 
L 502.200343 408.349434 
L 503.726086 385.112094 
L 505.310511 390.004722 
L 508.567384 385.138512 
L 510.239833 390.554218 
L 512.029646 394.770543 
L 513.58473 382.454436 
L 515.110473 393.565879 
L 516.577533 396.392613 
L 518.161958 385.629889 
L 519.775724 387.674648 
L 521.38949 381.71473 
L 523.061939 367.713149 
L 524.646364 386.300908 
L 526.0254 406.737932 
L 527.551143 392.308378 
L 529.19425 385.328723 
L 530.89604 396.730764 
L 534.299619 369.768476 
L 535.796021 391.547538 
L 537.380446 386.422431 
L 540.637319 389.338986 
L 542.309768 398.088653 
L 543.952875 378.407187 
L 545.507959 379.28955 
L 547.092384 375.569885 
L 548.500762 409.575233 
L 550.143869 379.194445 
L 551.493565 400.746312 
L 553.195354 399.008002 
L 554.779779 400.608938 
L 556.364204 385.820099 
L 557.860606 378.803458 
L 559.386348 397.565575 
L 561.088138 383.865161 
L 562.525857 418.055435 
L 564.0516 394.664871 
L 565.548001 403.816092 
L 567.073743 397.840323 
L 568.599486 394.162927 
L 570.183911 389.967737 
L 571.650971 400.011889 
L 573.352761 384.467493 
L 574.937186 400.841417 
L 576.521611 403.720987 
L 577.988671 427.808989 
L 580.952133 393.486624 
L 582.477875 382.819005 
L 584.032959 377.556524 
L 585.676066 389.365405 
L 587.201809 395.040007 
L 588.844916 392.91071 
L 590.311976 402.283844 
L 591.984425 374.867164 
L 593.451485 397.285544 
L 595.03591 382.237808 
L 596.767041 387.357631 
L 598.351466 382.348764 
L 599.759844 420.866319 
L 601.37361 383.125455 
L 602.987376 398.52191 
L 604.54246 383.79119 
L 605.892155 409.52768 
L 607.564604 377.678048 
L 608.972982 391.970227 
L 610.586748 392.995248 
L 612.171173 399.657887 
L 613.696915 384.678838 
L 615.486729 392.081183 
L 616.865765 406.426198 
L 618.303484 399.488811 
L 621.589699 376.140516 
L 623.115442 402.664264 
L 624.670525 390.03114 
L 626.166927 385.096243 
L 627.633987 407.33498 
L 629.218412 406.907007 
L 631.096249 386.200519 
L 632.563309 394.865648 
L 634.235758 393.766656 
L 636.142936 380.103227 
L 637.69802 387.695782 
L 639.223762 392.535574 
L 640.749505 402.680115 
L 642.216565 393.77194 
L 643.859672 393.608148 
L 645.473438 364.817728 
L 647.028522 380.768963 
L 648.67163 379.241998 
L 650.197372 385.746128 
L 651.752456 382.158553 
L 653.131492 397.597277 
L 654.686576 388.937432 
L 656.417707 380.41496 
L 659.527875 405.385326 
L 662.960796 393.000532 
L 664.77995 366.788517 
L 666.305693 398.432088 
L 667.860777 387.410467 
L 669.41586 387.605961 
L 670.88292 402.463487 
L 672.672734 372.912227 
L 674.257159 379.659403 
L 675.841584 382.348764 
L 677.543374 396.244672 
L 678.981093 399.309168 
L 680.6242 401.935125 
L 682.384672 372.198939 
L 683.969097 403.076386 
L 685.641546 381.59849 
L 687.137947 408.76684 
L 688.66369 378.560411 
L 690.277456 365.922004 
L 691.83254 393.238295 
L 693.211576 408.904214 
L 694.737319 398.437372 
L 696.380426 381.313175 
L 697.847486 401.670944 
L 699.519935 393.660984 
L 701.10436 410.764046 
L 704.361233 388.747222 
L 706.092364 375.770663 
L 707.764813 406.26769 
L 709.466603 389.375972 
L 710.87498 409.64392 
L 712.312699 391.71133 
L 713.838442 390.696876 
L 715.334843 408.116955 
L 716.919268 380.938038 
L 718.591717 390.939922 
L 720.117459 417.299878 
L 721.525837 406.901724 
L 722.963556 416.280141 
L 724.665346 378.6608 
L 726.132406 397.7188 
L 727.68749 399.245765 
L 729.359938 392.377065 
L 731.003046 379.09934 
L 732.616812 379.53788 
L 734.054531 395.372875 
L 735.580274 384.488628 
L 737.370087 400.814999 
L 738.954512 388.292831 
L 740.480255 388.768356 
L 742.123362 382.28536 
L 745.96706 373.974233 
L 747.43412 388.520026 
L 749.135909 390.950489 
L 750.749676 400.989358 
L 752.246077 377.873541 
L 753.801161 381.392429 
L 755.326903 388.974417 
L 756.970011 372.214789 
L 758.554436 399.071406 
L 760.344249 384.895466 
L 761.987356 384.256149 
L 763.54244 390.327023 
L 765.214889 373.525126 
L 766.681949 384.034237 
L 768.207692 398.986868 
L 769.704093 390.358724 
L 771.171153 398.838927 
L 772.696896 395.779713 
L 774.369344 382.34348 
L 775.836404 400.836133 
L 777.479512 378.644949 
L 778.946572 385.508365 
L 780.501656 404.053855 
L 782.115422 372.183088 
L 783.582482 418.842694 
L 787.044744 383.373785 
L 788.922581 368.616647 
L 790.477665 399.853381 
L 792.267478 393.782507 
L 793.793221 406.362795 
L 795.377646 398.553611 
L 796.844706 397.681815 
L 798.458472 391.299208 
L 800.042897 378.026766 
L 801.597981 400.207383 
L 803.123723 386.078996 
L 804.532101 403.636449 
L 806.292573 370.111911 
L 807.965022 379.035937 
L 809.461423 399.346154 
L 810.987166 393.534177 
L 812.953026 361.932874 
L 814.50811 407.873909 
L 816.033853 387.495005 
L 817.588937 406.843604 
L 819.114679 406.885873 
L 820.757787 377.53539 
L 822.195505 400.756879 
L 823.750589 381.741148 
L 825.217649 395.140396 
L 828.210452 405.200399 
L 829.85356 365.430627 
L 831.291278 399.467677 
L 832.963727 380.124361 
L 834.636176 378.16414 
L 836.308624 391.087863 
L 837.863708 389.645436 
L 839.565498 388.609848 
L 841.09124 398.315849 
L 842.646324 393.835343 
L 844.230749 401.797751 
L 845.991221 395.843117 
L 847.693011 399.303885 
L 849.424142 377.044014 
L 850.920543 401.871722 
L 852.651674 375.025673 
L 854.118735 384.752808 
L 855.761842 379.90245 
L 857.287585 394.453526 
L 858.842668 393.021666 
L 860.544458 371.453949 
L 862.040859 374.766776 
L 863.595943 408.323016 
L 865.121686 387.214973 
L 866.647428 401.618108 
L 869.992326 390.765563 
L 872.016869 379.669971 
L 873.601294 397.375365 
L 875.391107 365.272119 
L 877.004873 406.336377 
L 878.559957 404.841114 
L 880.115041 389.608451 
L 881.81683 385.534784 
L 883.577303 375.252868 
L 885.22041 373.477574 
L 886.775494 389.312568 
L 888.330578 384.166327 
L 889.973685 399.229914 
L 891.763498 371.379978 
L 893.201217 409.036304 
L 894.932348 375.406093 
L 896.516773 390.807832 
L 898.218563 370.693108 
L 899.891012 382.644646 
L 901.475437 387.162137 
L 903.177226 374.518446 
L 904.820334 373.926681 
L 906.375418 391.230521 
L 907.930501 398.574746 
L 909.573609 376.90664 
L 912.7718 380.932755 
L 914.414907 380.5312 
L 916.322085 373.863277 
L 917.847828 389.328419 
L 919.314888 394.849797 
L 921.163384 376.055978 
L 922.923856 377.112701 
L 924.596305 387.695782 
L 927.911861 377.144402 
L 929.61365 380.943322 
L 931.198075 365.657823 
L 932.870524 384.124058 
L 934.366925 403.763256 
L 935.95135 381.455833 
L 937.535775 387.833156 
L 939.237565 387.753902 
L 940.880673 379.152176 
L 942.52378 391.822286 
L 944.049522 394.041404 
L 945.604606 384.895466 
L 947.511784 363.449272 
L 949.330939 389.539764 
L 951.032729 371.617741 
L 952.705177 362.878641 
L 955.962051 386.97721 
L 957.751864 384.351254 
L 959.365631 397.491605 
L 960.950056 386.718313 
L 962.475798 381.883805 
L 964.089564 382.063448 
L 965.585966 386.755299 
L 967.522485 345.765012 
L 969.10691 368.310198 
L 970.750017 377.123268 
L 972.393125 392.038914 
L 974.036232 369.319368 
L 975.796704 395.21965 
L 977.6452 370.640272 
L 979.288308 357.251591 
L 980.931415 381.181085 
L 982.545181 373.942532 
L 984.276312 380.636872 
L 986.212832 356.918723 
L 987.826598 382.449152 
L 989.499046 369.21898 
L 991.05413 389.138209 
L 992.814602 360.522149 
L 994.633757 349.976053 
L 996.218182 373.430021 
L 996.218182 373.430021 
" style="fill:none;stroke:#1f77b4;stroke-linecap:square;stroke-width:1.5;"/>
   </g>
   <g id="line2d_14">
    <path clip-path="url(#pcd69ea7818)" d="M 184.581818 604.963325 
L 185.286007 603.610719 
L 186.195584 585.382247 
L 186.958456 576.268011 
L 187.838692 588.848298 
L 188.660245 605.290909 
L 189.51114 590.961745 
L 190.626106 586.338581 
L 191.506342 588.647521 
L 192.533284 578.080291 
L 193.706932 593.799046 
L 194.792557 541.295761 
L 195.84884 584.156448 
L 196.875782 556.850724 
L 197.990748 559.096261 
L 199.076373 563.154077 
L 200.191338 602.781192 
L 201.21828 553.083507 
L 202.42127 546.77487 
L 203.594918 558.995872 
L 204.827248 545.522653 
L 206.352991 555.529821 
L 207.497298 567.248879 
L 208.817652 551.366332 
L 209.961959 547.535711 
L 212.837397 544.397243 
L 214.157751 539.446496 
L 215.654152 562.13434 
L 216.886483 537.729321 
L 218.206837 579.866152 
L 219.703238 558.134643 
L 221.228981 489.220449 
L 222.637359 555.593224 
L 223.957713 551.170838 
L 225.424773 539.182315 
L 226.921174 524.055325 
L 228.476258 533.602817 
L 230.119366 531.716567 
L 231.674449 506.820172 
L 233.229533 563.122376 
L 234.872641 520.261689 
L 236.427724 473.765875 
L 237.894784 462.073234 
L 239.508551 549.284587 
L 241.004952 567.021684 
L 242.41333 548.756226 
L 244.056437 511.015362 
L 245.552838 482.314764 
L 247.342652 541.855824 
L 248.809712 502.429487 
L 252.007903 534.263269 
L 253.328257 532.081136 
L 254.942024 533.40204 
L 256.438425 491.497687 
L 258.110873 475.578155 
L 259.636616 543.905867 
L 261.1917 527.922931 
L 262.629419 544.629722 
L 264.213844 548.460343 
L 265.710245 513.16051 
L 267.324011 507.644416 
L 268.879095 499.851083 
L 270.287473 526.633729 
L 271.666509 492.42232 
L 273.192252 494.403676 
L 274.717994 512.600447 
L 276.243737 520.821752 
L 277.652115 520.1613 
L 279.295222 466.268425 
L 280.791624 499.058541 
L 282.200001 510.418314 
L 284.019156 479.445761 
L 285.57424 498.334686 
L 287.246688 529.407627 
L 288.74309 511.078766 
L 292.058646 524.684075 
L 293.643071 480.502484 
L 295.256837 506.027629 
L 296.899944 512.431371 
L 298.51371 501.964529 
L 299.98077 522.206059 
L 301.565195 528.382605 
L 303.325668 453.688137 
L 304.880751 481.194638 
L 306.406494 467.060967 
L 307.873554 518.639619 
L 309.604685 510.286223 
L 311.570546 480.534186 
L 313.213653 484.42821 
L 314.798078 501.108584 
L 316.382503 498.366387 
L 318.02561 453.783242 
L 319.668718 477.55951 
L 321.634578 457.154188 
L 323.072297 480.106213 
L 324.451334 504.870518 
L 325.977077 497.473456 
L 327.620184 464.915819 
L 329.204609 484.264418 
L 330.671669 504.939205 
L 333.86986 464.715042 
L 335.395603 486.541656 
L 336.921345 486.314461 
L 338.447088 501.536556 
L 340.148878 467.557627 
L 341.67462 498.863047 
L 343.347069 487.334199 
L 344.960835 473.728889 
L 346.427895 496.945095 
L 347.836273 472.011714 
L 349.273992 478.521128 
L 352.442842 496.913393 
L 354.056608 496.749601 
L 355.670374 469.206115 
L 357.401505 487.534976 
L 359.015271 459.928086 
L 360.511673 527.03 
L 362.15478 555.165251 
L 363.592499 498.2977 
L 365.235606 508.73284 
L 366.996079 467.425536 
L 368.580504 523.199379 
L 370.370317 446.586958 
L 371.984083 437.404034 
L 375.32898 503.618301 
L 377.03077 495.296607 
L 378.556513 509.329889 
L 380.170279 496.548824 
L 381.696021 501.304077 
L 383.544517 564.70746 
L 385.275648 490.736847 
L 386.860073 555.165251 
L 388.415157 462.934463 
L 389.970241 494.86335 
L 391.760054 492.617814 
L 393.285797 531.256892 
L 394.84088 486.145385 
L 396.572011 517.815375 
L 398.068413 508.901916 
L 399.623497 470.162449 
L 401.119898 473.068437 
L 402.733664 482.150972 
L 404.230066 494.171197 
L 405.697126 514.645206 
L 407.076162 574.550836 
L 408.660587 487.86256 
L 410.127647 492.950682 
L 411.829437 505.398879 
L 413.35518 491.133118 
L 416.582712 545.786834 
L 418.167137 495.560788 
L 419.751562 540.302441 
L 421.277305 490.768548 
L 422.744365 496.089149 
L 424.416813 510.185835 
L 425.854532 498.334686 
L 427.380275 510.154133 
L 428.906017 494.667857 
L 430.402419 476.835655 
L 431.869479 483.767758 
L 433.453904 481.35843 
L 435.155694 515.46945 
L 436.681436 492.221543 
L 438.207179 473.797576 
L 439.732921 469.734476 
L 441.111958 485.125647 
L 442.87243 476.338995 
L 444.632902 456.261257 
L 447.831094 488.195428 
L 449.356836 463.293749 
L 451.087967 464.746743 
L 452.555027 474.35764 
L 454.139452 466.860189 
L 457.366985 478.156559 
L 459.068774 462.701984 
L 460.741223 518.111257 
L 462.178942 459.267634 
L 463.939414 493.315251 
L 465.55318 464.419159 
L 467.078923 458.871363 
L 468.751371 476.439384 
L 470.130408 470.891588 
L 471.744174 508.109374 
L 473.181893 480.106213 
L 474.795659 473.369603 
L 476.321402 499.15893 
L 478.081874 503.021252 
L 479.69564 471.351262 
L 481.368089 481.522222 
L 482.923173 451.241823 
L 484.507598 479.842032 
L 486.297411 485.321141 
L 487.881836 537.528543 
L 489.612967 484.031939 
L 491.226733 519.104577 
L 492.723134 502.329099 
L 494.336901 507.216443 
L 496.009349 488.755491 
L 499.178199 499.322722 
L 500.703942 494.039106 
L 502.200343 523.563948 
L 503.726086 465.639674 
L 505.310511 497.013782 
L 507.041642 472.444971 
L 510.239833 510.883272 
L 512.029646 565.135433 
L 513.58473 484.597286 
L 515.110473 493.278266 
L 516.577533 487.070018 
L 518.161958 451.373913 
L 519.775724 475.181883 
L 521.38949 462.538192 
L 523.061939 459.103842 
L 524.646364 474.162146 
L 526.0254 451.606392 
L 527.551143 498.16561 
L 529.19425 535.055812 
L 530.89604 482.943514 
L 532.568488 503.750391 
L 534.299619 466.400515 
L 535.796021 475.974426 
L 537.380446 476.143501 
L 540.637319 504.638039 
L 542.309768 484.396508 
L 543.952875 508.60075 
L 545.507959 496.617511 
L 547.092384 468.809844 
L 548.500762 495.328308 
L 550.143869 521.117635 
L 551.493565 462.501207 
L 553.195354 511.90301 
L 554.779779 501.171987 
L 556.364204 480.433797 
L 557.860606 481.823388 
L 561.088138 519.960523 
L 562.525857 488.98797 
L 564.0516 492.686501 
L 565.548001 497.410053 
L 567.073743 507.977283 
L 568.599486 452.298546 
L 570.183911 506.751485 
L 571.650971 483.043903 
L 573.352761 510.185835 
L 574.937186 478.716622 
L 576.521611 542.648367 
L 577.988671 473.633784 
L 580.952133 460.821017 
L 582.477875 485.749114 
L 584.032959 458.575481 
L 585.676066 509.430278 
L 587.201809 488.49131 
L 588.844916 489.019672 
L 590.311976 486.673747 
L 591.984425 477.332315 
L 593.451485 504.210066 
L 595.03591 496.152552 
L 596.767041 504.870518 
L 598.351466 491.233507 
L 599.759844 544.233451 
L 601.37361 494.995441 
L 602.987376 483.899849 
L 604.54246 533.005769 
L 605.892155 528.678488 
L 607.564604 453.487359 
L 608.972982 489.748811 
L 610.586748 492.850293 
L 612.171173 489.976006 
L 613.696915 492.950682 
L 615.486729 476.703565 
L 616.865765 527.822542 
L 618.303484 545.654744 
L 621.589699 455.500417 
L 623.115442 513.752275 
L 624.670525 489.748811 
L 626.166927 498.530179 
L 627.633987 518.243348 
L 629.218412 474.426327 
L 631.096249 481.62261 
L 632.563309 490.409263 
L 634.235758 518.607917 
L 636.142936 535.943459 
L 637.69802 475.382661 
L 639.223762 472.143805 
L 640.749505 516.827339 
L 642.216565 454.015721 
L 643.859672 492.026049 
L 645.473438 424.723358 
L 647.028522 468.577364 
L 648.67163 469.570684 
L 650.197372 485.91819 
L 651.752456 469.338205 
L 653.131492 532.609498 
L 654.686576 450.084711 
L 656.417707 489.843916 
L 658.002132 534.52745 
L 659.527875 504.807114 
L 662.960796 498.001818 
L 664.77995 502.889162 
L 666.305693 472.936347 
L 667.860777 482.150972 
L 669.41586 488.459609 
L 670.88292 518.047854 
L 672.672734 467.953898 
L 674.257159 433.937983 
L 675.841584 505.79515 
L 677.543374 519.796731 
L 678.981093 474.294236 
L 680.6242 474.061757 
L 682.384672 482.711035 
L 683.969097 506.92056 
L 685.641546 468.841545 
L 687.137947 528.979654 
L 688.66369 481.194638 
L 690.277456 456.425049 
L 691.83254 488.755491 
L 693.211576 487.503274 
L 694.737319 451.870573 
L 696.380426 465.31209 
L 697.847486 487.667066 
L 699.519935 489.843916 
L 701.10436 480.930457 
L 704.361233 518.475827 
L 706.092364 509.034006 
L 707.764813 468.11769 
L 709.466603 495.624191 
L 710.87498 498.863047 
L 712.312699 439.913752 
L 713.838442 462.865776 
L 715.334843 489.120061 
L 716.919268 538.521863 
L 718.591717 540.635309 
L 720.117459 556.94583 
L 721.525837 540.962893 
L 722.963556 541.887526 
L 726.132406 474.917703 
L 727.68749 525.941575 
L 729.359938 476.703565 
L 731.003046 468.017301 
L 732.616812 475.514751 
L 734.054531 516.394082 
L 735.580274 488.327518 
L 737.370087 516.166887 
L 738.954512 492.818591 
L 740.480255 513.620184 
L 742.123362 516.034797 
L 745.96706 488.095039 
L 747.43412 523.331469 
L 749.135909 474.426327 
L 750.749676 500.611924 
L 752.246077 489.415943 
L 753.801161 474.822598 
L 755.326903 493.183161 
L 756.970011 500.712312 
L 758.554436 478.68492 
L 760.344249 460.424746 
L 761.987356 455.632507 
L 763.54244 466.236723 
L 765.214889 490.541353 
L 766.681949 461.481469 
L 768.207692 496.448435 
L 769.704093 459.531815 
L 771.171153 497.013782 
L 772.696896 491.101416 
L 774.369344 463.69002 
L 775.836404 482.880111 
L 777.479512 487.667066 
L 778.946572 499.91977 
L 780.501656 491.92566 
L 782.115422 507.248144 
L 783.582482 554.504799 
L 787.044744 472.212492 
L 788.922581 496.020462 
L 790.477665 518.412423 
L 792.267478 489.315554 
L 793.793221 500.939508 
L 795.377646 532.477407 
L 796.844706 531.452386 
L 798.458472 505.995928 
L 800.042897 491.233507 
L 801.597981 500.712312 
L 803.123723 472.376284 
L 804.532101 508.373555 
L 806.292573 444.801096 
L 807.965022 477.92408 
L 809.461423 460.25567 
L 810.987166 498.863047 
L 812.953026 506.952262 
L 814.50811 542.780457 
L 816.033853 525.112048 
L 817.588937 479.04949 
L 819.114679 490.012992 
L 820.757787 478.917399 
L 822.195505 520.557571 
L 823.750589 495.428697 
L 825.217649 528.150126 
L 828.210452 514.217233 
L 829.85356 441.895107 
L 831.291278 510.550404 
L 832.963727 525.90459 
L 834.636176 467.060967 
L 836.308624 503.449225 
L 837.863708 462.538192 
L 839.565498 502.429487 
L 841.09124 487.302497 
L 842.646324 485.025259 
L 844.230749 497.901429 
L 845.991221 498.530179 
L 847.693011 519.632939 
L 849.424142 464.350472 
L 850.920543 460.25567 
L 852.651674 487.434587 
L 854.118735 463.55793 
L 855.761842 470.659109 
L 857.287585 487.667066 
L 858.842668 485.321141 
L 860.544458 501.404466 
L 862.040859 483.043903 
L 863.595943 541.264059 
L 865.121686 456.493736 
L 866.647428 505.03431 
L 869.992326 479.773345 
L 872.016869 462.538192 
L 873.601294 476.338995 
L 875.391107 439.649571 
L 877.004873 525.180735 
L 878.559957 512.827642 
L 880.115041 475.218869 
L 881.81683 519.268369 
L 885.22041 453.556046 
L 886.775494 500.247354 
L 888.330578 457.418369 
L 889.973685 485.685711 
L 891.763498 456.789619 
L 893.201217 478.288649 
L 894.932348 527.193792 
L 896.516773 482.547243 
L 898.218563 456.393348 
L 899.891012 447.178723 
L 901.475437 527.325882 
L 903.177226 471.351262 
L 904.820334 457.450071 
L 906.375418 475.61514 
L 907.930501 487.534976 
L 909.573609 487.302497 
L 912.7718 504.442545 
L 914.414907 456.361646 
L 916.322085 488.163726 
L 917.847828 486.346163 
L 919.314888 472.275895 
L 921.163384 474.653522 
L 922.923856 520.488884 
L 924.596305 469.369907 
L 926.298095 505.763449 
L 927.911861 450.153398 
L 929.61365 469.369907 
L 931.198075 465.639674 
L 932.870524 494.699558 
L 934.366925 484.364807 
L 935.95135 482.087569 
L 937.535775 470.891588 
L 939.237565 487.635365 
L 940.880673 494.768245 
L 942.52378 515.60154 
L 944.049522 462.104936 
L 945.604606 467.12437 
L 947.511784 487.006614 
L 949.330939 493.378654 
L 951.032729 480.634574 
L 952.705177 461.544873 
L 955.962051 486.906226 
L 957.751864 507.448922 
L 959.365631 482.811424 
L 960.950056 531.22519 
L 962.475798 475.842335 
L 964.089564 450.253787 
L 965.585966 488.126741 
L 967.522485 494.007405 
L 969.10691 433.874579 
L 970.750017 460.223969 
L 972.393125 478.219962 
L 974.036232 486.541656 
L 975.796704 478.320351 
L 977.6452 457.714251 
L 979.288308 450.613073 
L 980.931415 502.624981 
L 982.545181 474.193847 
L 984.276312 478.949101 
L 986.212832 478.42074 
L 987.826598 499.391409 
L 989.499046 498.863047 
L 991.05413 478.949101 
L 992.814602 506.355213 
L 994.633757 454.544082 
L 996.218182 489.48463 
L 996.218182 489.48463 
" style="fill:none;stroke:#ff7f0e;stroke-linecap:square;stroke-width:1.5;"/>
   </g>
   <g id="line2d_15">
    <path clip-path="url(#pcd69ea7818)" d="M 184.581818 463.129957 
L 185.286007 503.385822 
L 186.195584 455.040742 
L 186.958456 487.038316 
L 187.838692 457.846342 
L 188.660245 464.651638 
L 189.51114 463.161659 
L 190.626106 377.03873 
L 191.506342 443.348102 
L 193.706932 385.196632 
L 195.84884 417.294595 
L 196.875782 409.83413 
L 197.990748 389.423524 
L 199.076373 396.292224 
L 201.21828 403.821376 
L 202.42127 365.150596 
L 203.594918 372.716733 
L 204.827248 387.738051 
L 206.352991 280.977321 
L 207.497298 393.882896 
L 208.817652 341.210535 
L 209.961959 375.057374 
L 212.837397 330.014554 
L 214.157751 342.203855 
L 215.654152 292.765067 
L 216.886483 365.615554 
L 218.206837 340.185514 
L 219.703238 289.827377 
L 221.228981 278.00793 
L 222.637359 300.030038 
L 223.957713 348.179624 
L 225.424773 297.456917 
L 226.921174 304.6215 
L 228.476258 266.415678 
L 230.119366 254.030883 
L 231.674449 279.656417 
L 233.229533 268.365332 
L 234.872641 213.611227 
L 236.427724 275.498212 
L 237.894784 301.45133 
L 239.508551 248.055115 
L 241.004952 283.323246 
L 242.41333 334.806793 
L 244.056437 246.998392 
L 245.552838 296.136013 
L 247.342652 208.031729 
L 248.809712 317.899225 
L 252.007903 303.501373 
L 253.328257 347.054214 
L 254.942024 263.044731 
L 256.438425 285.336304 
L 258.110873 255.748058 
L 259.636616 308.6846 
L 261.1917 292.500886 
L 262.629419 316.145064 
L 264.213844 272.687329 
L 265.710245 300.82258 
L 267.324011 308.055849 
L 268.879095 260.999972 
L 270.287473 324.900015 
L 271.666509 323.674216 
L 273.192252 317.598059 
L 274.717994 291.481148 
L 276.243737 280.845231 
L 277.652115 329.586582 
L 279.295222 256.244718 
L 280.791624 295.771444 
L 282.200001 326.353009 
L 284.019156 187.885304 
L 285.57424 281.405294 
L 287.246688 223.253825 
L 288.74309 280.184779 
L 292.058646 200.502577 
L 293.643071 277.875839 
L 295.256837 283.983698 
L 296.899944 252.414097 
L 298.51371 264.598114 
L 299.98077 312.282742 
L 301.565195 279.656417 
L 303.325668 226.291903 
L 304.880751 287.518437 
L 306.406494 303.105102 
L 307.873554 327.145551 
L 309.604685 234.185625 
L 311.570546 228.474037 
L 313.213653 249.936082 
L 314.798078 283.719518 
L 316.382503 296.104312 
L 318.02561 258.389866 
L 319.668718 283.983698 
L 321.634578 150.044052 
L 323.072297 326.812684 
L 324.451334 340.285902 
L 325.977077 283.782921 
L 327.620184 249.344317 
L 329.204609 273.347781 
L 330.671669 306.106195 
L 333.86986 276.951206 
L 335.395603 283.915011 
L 336.921345 299.042002 
L 338.447088 298.444953 
L 340.148878 234.153923 
L 341.67462 291.576253 
L 344.960835 232.568838 
L 346.427895 307.596175 
L 347.836273 327.837705 
L 349.273992 306.766647 
L 350.799734 292.802052 
L 352.442842 307.82337 
L 354.056608 263.113418 
L 355.670374 245.413307 
L 357.401505 277.01461 
L 359.015271 273.21569 
L 360.511673 316.974592 
L 362.15478 246.501732 
L 363.592499 314.031618 
L 365.235606 260.70409 
L 366.996079 224.210159 
L 368.580504 276.914221 
L 370.370317 232.399763 
L 371.984083 265.491045 
L 375.32898 313.936513 
L 377.03077 239.796824 
L 378.556513 281.769864 
L 380.170279 261.031674 
L 381.696021 284.575463 
L 383.544517 173.091181 
L 385.275648 201.987273 
L 386.860073 286.028457 
L 388.415157 282.197836 
L 389.970241 273.680649 
L 391.760054 215.492194 
L 393.285797 297.784501 
L 394.84088 280.08439 
L 396.572011 212.454115 
L 398.068413 301.683809 
L 399.623497 279.128056 
L 401.119898 305.614819 
L 402.733664 265.919018 
L 404.230066 292.569573 
L 405.697126 298.217758 
L 407.076162 327.541822 
L 408.660587 282.826587 
L 410.127647 303.633463 
L 411.829437 282.662795 
L 413.35518 268.328346 
L 416.582712 271.699293 
L 418.167137 262.78055 
L 419.751562 259.383186 
L 421.277305 301.747213 
L 422.744365 302.840921 
L 424.416813 286.821 
L 425.854532 309.873413 
L 427.380275 303.696867 
L 428.906017 267.932075 
L 430.402419 310.301386 
L 431.869479 291.084877 
L 433.453904 288.210591 
L 435.155694 220.580315 
L 436.681436 272.195953 
L 438.207179 282.794885 
L 439.732921 304.75359 
L 441.111958 331.272055 
L 442.87243 199.842125 
L 444.632902 209.981383 
L 446.246669 241.381909 
L 447.831094 269.585847 
L 449.356836 285.537081 
L 451.087967 266.84365 
L 452.555027 301.8159 
L 454.139452 270.542181 
L 457.366985 260.767493 
L 459.068774 236.003188 
L 460.741223 224.775506 
L 462.178942 309.508844 
L 463.939414 224.675117 
L 465.55318 254.823426 
L 467.078923 315.257417 
L 468.751371 236.230384 
L 470.130408 323.806307 
L 471.744174 253.703299 
L 473.181893 312.182353 
L 474.795659 251.357374 
L 476.321402 288.273994 
L 478.081874 196.904435 
L 479.69564 264.962683 
L 481.368089 237.752065 
L 482.923173 283.254559 
L 484.507598 251.621555 
L 486.297411 229.430371 
L 487.881836 297.161035 
L 489.612967 237.355794 
L 491.226733 272.623926 
L 492.723134 295.010603 
L 496.009349 237.783767 
L 499.178199 261.364541 
L 500.703942 284.279581 
L 502.200343 298.777821 
L 503.726086 284.675852 
L 505.310511 279.027667 
L 507.041642 203.86824 
L 508.567384 284.744539 
L 510.239833 248.615178 
L 512.029646 198.024562 
L 513.58473 270.705973 
L 515.110473 282.562406 
L 516.577533 312.483519 
L 518.161958 255.848447 
L 519.775724 275.498212 
L 521.38949 270.441792 
L 523.061939 254.855127 
L 524.646364 278.103035 
L 526.0254 334.901899 
L 527.551143 296.167715 
L 529.19425 246.137162 
L 530.89604 230.946768 
L 532.568488 243.960313 
L 534.299619 230.090823 
L 535.796021 281.241502 
L 537.380446 275.001552 
L 540.637319 256.540601 
L 542.309768 253.270043 
L 543.952875 247.627142 
L 545.507959 291.708344 
L 547.092384 277.706763 
L 548.500762 316.673426 
L 550.143869 263.673481 
L 551.493565 343.42437 
L 553.195354 274.20901 
L 554.779779 262.352578 
L 556.364204 263.969364 
L 557.860606 303.992749 
L 559.386348 289.367702 
L 561.088138 276.882519 
L 562.525857 292.437483 
L 564.0516 278.039631 
L 565.548001 296.067326 
L 567.073743 299.834544 
L 568.599486 315.421209 
L 570.183911 281.738162 
L 571.650971 318.855559 
L 573.352761 221.504948 
L 574.937186 256.176031 
L 576.521611 286.657208 
L 577.988671 318.559677 
L 580.952133 328.630247 
L 582.477875 289.003133 
L 584.032959 316.773815 
L 585.676066 275.561616 
L 587.201809 301.652108 
L 588.844916 226.2285 
L 590.311976 307.199904 
L 591.984425 244.224494 
L 593.451485 311.426796 
L 595.03591 278.039631 
L 596.767041 233.921444 
L 598.351466 279.989285 
L 599.759844 334.209745 
L 601.37361 269.485458 
L 602.987376 283.619129 
L 604.54246 275.165344 
L 605.892155 346.959109 
L 607.564604 236.66364 
L 608.972982 322.485403 
L 610.586748 252.873772 
L 612.171173 277.1467 
L 613.696915 304.986069 
L 615.486729 249.243928 
L 616.865765 331.108263 
L 618.303484 315.748793 
L 621.589699 268.793305 
L 623.115442 276.882519 
L 624.670525 262.056695 
L 626.166927 300.627086 
L 627.633987 301.94799 
L 629.218412 303.596478 
L 631.096249 183.034945 
L 632.563309 312.25104 
L 634.235758 241.022623 
L 636.142936 144.892527 
L 637.69802 265.654837 
L 639.223762 295.07929 
L 640.749505 289.198627 
L 642.216565 335.694441 
L 643.859672 251.193582 
L 645.473438 275.825796 
L 647.028522 276.819116 
L 648.67163 264.598114 
L 650.197372 279.788508 
L 651.752456 287.386347 
L 653.131492 338.172456 
L 654.686576 283.059066 
L 656.417707 235.702022 
L 658.002132 273.0836 
L 659.527875 283.254559 
L 662.960796 268.957097 
L 664.77995 233.292694 
L 666.305693 271.995175 
L 667.860777 275.234031 
L 669.41586 286.361325 
L 670.88292 305.810313 
L 672.672734 231.210949 
L 674.257159 268.925395 
L 675.841584 271.007139 
L 677.543374 232.135582 
L 678.981093 313.106986 
L 680.6242 250.892416 
L 682.384672 227.876988 
L 683.969097 276.454547 
L 685.641546 256.968574 
L 687.137947 294.022567 
L 688.66369 291.64494 
L 690.277456 274.636983 
L 691.83254 294.286748 
L 693.211576 349.468826 
L 694.737319 292.041212 
L 696.380426 257.829803 
L 697.847486 308.81669 
L 699.519935 298.481939 
L 701.10436 295.343471 
L 704.361233 268.064166 
L 706.092364 218.699348 
L 707.764813 291.481148 
L 709.466603 249.936082 
L 710.87498 329.819061 
L 712.312699 309.244663 
L 713.838442 272.423148 
L 715.334843 297.028944 
L 716.919268 280.316869 
L 718.591717 236.431161 
L 720.117459 275.498212 
L 721.525837 306.074494 
L 722.963556 300.426309 
L 724.665346 239.833809 
L 726.132406 312.018561 
L 727.68749 262.616758 
L 729.359938 230.022136 
L 731.003046 241.646089 
L 732.616812 268.925395 
L 734.054531 312.974895 
L 735.580274 296.199417 
L 737.370087 197.696978 
L 738.954512 255.219697 
L 740.480255 296.500583 
L 742.123362 250.797311 
L 745.96706 111.109091 
L 747.43412 310.137594 
L 749.135909 224.971 
L 750.749676 263.837273 
L 752.246077 295.671055 
L 753.801161 280.385556 
L 755.326903 294.350151 
L 756.970011 257.893206 
L 758.554436 279.096354 
L 760.344249 204.893262 
L 761.987356 292.104615 
L 763.54244 274.969851 
L 765.214889 248.683865 
L 766.681949 301.255837 
L 768.207692 293.261727 
L 769.704093 279.989285 
L 771.171153 327.869407 
L 772.696896 277.442583 
L 774.369344 229.462073 
L 775.836404 322.55409 
L 777.479512 254.427155 
L 778.946572 293.330414 
L 780.501656 275.957887 
L 782.115422 301.18715 
L 783.582482 306.174882 
L 787.044744 230.455392 
L 788.922581 193.866357 
L 790.477665 280.285168 
L 792.267478 191.885001 
L 793.793221 305.709924 
L 795.377646 261.100361 
L 796.844706 302.772234 
L 798.458472 246.734211 
L 800.042897 268.233241 
L 801.597981 338.072068 
L 803.123723 307.923759 
L 804.532101 312.38313 
L 806.292573 234.978167 
L 807.965022 249.967783 
L 809.461423 290.651621 
L 810.987166 292.041212 
L 812.953026 152.352992 
L 814.50811 265.126476 
L 816.033853 297.456917 
L 817.588937 284.14749 
L 819.114679 274.605281 
L 820.757787 261.364541 
L 822.195505 321.396978 
L 823.750589 290.820696 
L 825.217649 304.917382 
L 828.210452 308.880093 
L 829.85356 257.629025 
L 831.291278 324.403355 
L 832.963727 255.320086 
L 834.636176 249.539811 
L 836.308624 260.138743 
L 837.863708 293.129636 
L 839.565498 272.423148 
L 841.09124 283.254559 
L 842.646324 279.159758 
L 844.230749 268.560825 
L 845.991221 216.881785 
L 847.693011 238.047947 
L 849.424142 230.254615 
L 850.920543 305.482729 
L 852.651674 231.707609 
L 854.118735 316.509634 
L 855.761842 258.389866 
L 857.287585 295.708041 
L 858.842668 276.951206 
L 860.544458 247.627142 
L 862.040859 300.790878 
L 863.595943 269.913431 
L 865.121686 299.469975 
L 866.647428 293.626296 
L 869.992326 328.001497 
L 872.016869 218.466869 
L 873.601294 275.429525 
L 875.391107 205.321234 
L 877.004873 250.03647 
L 878.559957 266.415678 
L 880.115041 267.440699 
L 881.81683 250.200262 
L 883.577303 253.402133 
L 885.22041 245.281217 
L 886.775494 282.234822 
L 888.330578 303.665165 
L 889.973685 270.01382 
L 891.763498 207.566771 
L 893.201217 311.590588 
L 894.932348 231.311338 
L 896.516773 270.177612 
L 898.218563 256.308122 
L 899.891012 248.319295 
L 901.475437 262.849237 
L 903.177226 246.105461 
L 904.820334 251.753645 
L 906.375418 285.235915 
L 907.930501 289.330717 
L 909.573609 261.327556 
L 912.7718 272.026877 
L 914.414907 246.665524 
L 916.322085 182.406195 
L 917.847828 280.216481 
L 919.314888 313.804423 
L 921.163384 213.907109 
L 922.923856 210.245564 
L 924.596305 241.91027 
L 926.298095 238.116634 
L 927.911861 284.807942 
L 929.61365 230.719573 
L 931.198075 285.368006 
L 932.870524 232.833019 
L 934.366925 304.161825 
L 935.95135 266.912337 
L 937.535775 278.964264 
L 939.237565 259.647367 
L 940.880673 257.697712 
L 942.52378 270.278 
L 944.049522 318.559677 
L 945.604606 310.829747 
L 947.511784 188.05438 
L 949.330939 197.036526 
L 952.705177 259.119005 
L 955.962051 295.607652 
L 957.751864 195.118573 
L 959.365631 271.931772 
L 960.950056 268.064166 
L 962.475798 289.198627 
L 964.089564 281.669475 
L 965.585966 310.729359 
L 967.522485 196.99954 
L 969.10691 281.57437 
L 970.750017 260.667104 
L 972.393125 258.590643 
L 974.036232 265.755226 
L 975.796704 217.60564 
L 977.6452 259.742472 
L 979.288308 275.894483 
L 980.931415 257.761116 
L 982.545181 288.210591 
L 984.276312 252.778667 
L 986.212832 218.59896 
L 987.826598 255.251399 
L 989.499046 259.018616 
L 991.05413 289.563196 
L 992.814602 265.591434 
L 994.633757 200.79846 
L 996.218182 280.517647 
L 996.218182 280.517647 
" style="fill:none;stroke:#2ca02c;stroke-linecap:square;stroke-width:1.5;"/>
   </g>
   <g id="line2d_16">
    <path clip-path="url(#pcd69ea7818)" d="M 211.487702 413.404863 
L 250.511502 359.528499 
L 290.239491 373.64841 
L 332.16807 389.869384 
L 373.715214 371.358844 
L 415.05697 351.863129 
L 455.723877 374.398298 
L 497.535092 383.727182 
L 538.964871 374.304734 
L 579.514414 376.199406 
L 620.034615 386.381373 
L 661.347029 354.979637 
L 702.835491 375.706819 
L 743.913175 365.083175 
L 785.372295 345.91631 
L 826.772733 383.454745 
L 868.437242 381.154171 
L 911.07001 394.738841 
L 954.436308 345.405836 
" style="fill:none;stroke:#d62728;stroke-linecap:square;stroke-width:1.5;"/>
   </g>
   <g id="patch_3">
    <path d="M 144 630 
L 144 86.4 
" style="fill:none;stroke:#000000;stroke-linecap:square;stroke-linejoin:miter;stroke-width:0.8;"/>
   </g>
   <g id="patch_4">
    <path d="M 1036.8 630 
L 1036.8 86.4 
" style="fill:none;stroke:#000000;stroke-linecap:square;stroke-linejoin:miter;stroke-width:0.8;"/>
   </g>
   <g id="patch_5">
    <path d="M 144 630 
L 1036.8 630 
" style="fill:none;stroke:#000000;stroke-linecap:square;stroke-linejoin:miter;stroke-width:0.8;"/>
   </g>
   <g id="patch_6">
    <path d="M 144 86.4 
L 1036.8 86.4 
" style="fill:none;stroke:#000000;stroke-linecap:square;stroke-linejoin:miter;stroke-width:0.8;"/>
   </g>
   <g id="text_15">
    <!-- doomrnn.cma.16.24 -->
    <defs>
     <path d="M 54.890625 33.015625 
L 54.890625 0 
L 45.90625 0 
L 45.90625 32.71875 
Q 45.90625 40.484375 42.875 44.328125 
Q 39.84375 48.1875 33.796875 48.1875 
Q 26.515625 48.1875 22.3125 43.546875 
Q 18.109375 38.921875 18.109375 30.90625 
L 18.109375 0 
L 9.078125 0 
L 9.078125 54.6875 
L 18.109375 54.6875 
L 18.109375 46.1875 
Q 21.34375 51.125 25.703125 53.5625 
Q 30.078125 56 35.796875 56 
Q 45.21875 56 50.046875 50.171875 
Q 54.890625 44.34375 54.890625 33.015625 
z
" id="DejaVuSans-6e"/>
    </defs>
    <g transform="translate(529.5225 80.4)scale(0.12 -0.12)">
     <use xlink:href="#DejaVuSans-64"/>
     <use x="63.476562" xlink:href="#DejaVuSans-6f"/>
     <use x="124.658203" xlink:href="#DejaVuSans-6f"/>
     <use x="185.839844" xlink:href="#DejaVuSans-6d"/>
     <use x="283.251953" xlink:href="#DejaVuSans-72"/>
     <use x="324.349609" xlink:href="#DejaVuSans-6e"/>
     <use x="387.728516" xlink:href="#DejaVuSans-6e"/>
     <use x="451.107422" xlink:href="#DejaVuSans-2e"/>
     <use x="482.894531" xlink:href="#DejaVuSans-63"/>
     <use x="537.875" xlink:href="#DejaVuSans-6d"/>
     <use x="635.287109" xlink:href="#DejaVuSans-61"/>
     <use x="696.566406" xlink:href="#DejaVuSans-2e"/>
     <use x="728.353516" xlink:href="#DejaVuSans-31"/>
     <use x="791.976562" xlink:href="#DejaVuSans-36"/>
     <use x="855.599609" xlink:href="#DejaVuSans-2e"/>
     <use x="887.386719" xlink:href="#DejaVuSans-32"/>
     <use x="951.009766" xlink:href="#DejaVuSans-34"/>
    </g>
   </g>
   <g id="legend_1">
    <g id="patch_7">
     <path d="M 924.329687 153.1125 
L 1029.8 153.1125 
Q 1031.8 153.1125 1031.8 151.1125 
L 1031.8 93.4 
Q 1031.8 91.4 1029.8 91.4 
L 924.329687 91.4 
Q 922.329687 91.4 922.329687 93.4 
L 922.329687 151.1125 
Q 922.329687 153.1125 924.329687 153.1125 
z
" style="fill:#ffffff;opacity:0.8;stroke:#cccccc;stroke-linejoin:miter;"/>
    </g>
    <g id="line2d_17">
     <path d="M 926.329687 99.498437 
L 946.329687 99.498437 
" style="fill:none;stroke:#1f77b4;stroke-linecap:square;stroke-width:1.5;"/>
    </g>
    <g id="line2d_18"/>
    <g id="text_16">
     <!-- mean -->
     <g transform="translate(954.329687 102.998437)scale(0.1 -0.1)">
      <use xlink:href="#DejaVuSans-6d"/>
      <use x="97.412109" xlink:href="#DejaVuSans-65"/>
      <use x="158.935547" xlink:href="#DejaVuSans-61"/>
      <use x="220.214844" xlink:href="#DejaVuSans-6e"/>
     </g>
    </g>
    <g id="line2d_19">
     <path d="M 926.329687 114.176562 
L 946.329687 114.176562 
" style="fill:none;stroke:#ff7f0e;stroke-linecap:square;stroke-width:1.5;"/>
    </g>
    <g id="line2d_20"/>
    <g id="text_17">
     <!-- min -->
     <g transform="translate(954.329687 117.676562)scale(0.1 -0.1)">
      <use xlink:href="#DejaVuSans-6d"/>
      <use x="97.412109" xlink:href="#DejaVuSans-69"/>
      <use x="125.195312" xlink:href="#DejaVuSans-6e"/>
     </g>
    </g>
    <g id="line2d_21">
     <path d="M 926.329687 128.854687 
L 946.329687 128.854687 
" style="fill:none;stroke:#2ca02c;stroke-linecap:square;stroke-width:1.5;"/>
    </g>
    <g id="line2d_22"/>
    <g id="text_18">
     <!-- max -->
     <defs>
      <path d="M 54.890625 54.6875 
L 35.109375 28.078125 
L 55.90625 0 
L 45.3125 0 
L 29.390625 21.484375 
L 13.484375 0 
L 2.875 0 
L 24.125 28.609375 
L 4.6875 54.6875 
L 15.28125 54.6875 
L 29.78125 35.203125 
L 44.28125 54.6875 
z
" id="DejaVuSans-78"/>
     </defs>
     <g transform="translate(954.329687 132.354687)scale(0.1 -0.1)">
      <use xlink:href="#DejaVuSans-6d"/>
      <use x="97.412109" xlink:href="#DejaVuSans-61"/>
      <use x="158.691406" xlink:href="#DejaVuSans-78"/>
     </g>
    </g>
    <g id="line2d_23">
     <path d="M 926.329687 143.532812 
L 946.329687 143.532812 
" style="fill:none;stroke:#d62728;stroke-linecap:square;stroke-width:1.5;"/>
    </g>
    <g id="line2d_24"/>
    <g id="text_19">
     <!-- best avg score -->
     <defs>
      <path d="M 48.6875 27.296875 
Q 48.6875 37.203125 44.609375 42.84375 
Q 40.53125 48.484375 33.40625 48.484375 
Q 26.265625 48.484375 22.1875 42.84375 
Q 18.109375 37.203125 18.109375 27.296875 
Q 18.109375 17.390625 22.1875 11.75 
Q 26.265625 6.109375 33.40625 6.109375 
Q 40.53125 6.109375 44.609375 11.75 
Q 48.6875 17.390625 48.6875 27.296875 
z
M 18.109375 46.390625 
Q 20.953125 51.265625 25.265625 53.625 
Q 29.59375 56 35.59375 56 
Q 45.5625 56 51.78125 48.09375 
Q 58.015625 40.1875 58.015625 27.296875 
Q 58.015625 14.40625 51.78125 6.484375 
Q 45.5625 -1.421875 35.59375 -1.421875 
Q 29.59375 -1.421875 25.265625 0.953125 
Q 20.953125 3.328125 18.109375 8.203125 
L 18.109375 0 
L 9.078125 0 
L 9.078125 75.984375 
L 18.109375 75.984375 
z
" id="DejaVuSans-62"/>
      <path d="M 45.40625 27.984375 
Q 45.40625 37.75 41.375 43.109375 
Q 37.359375 48.484375 30.078125 48.484375 
Q 22.859375 48.484375 18.828125 43.109375 
Q 14.796875 37.75 14.796875 27.984375 
Q 14.796875 18.265625 18.828125 12.890625 
Q 22.859375 7.515625 30.078125 7.515625 
Q 37.359375 7.515625 41.375 12.890625 
Q 45.40625 18.265625 45.40625 27.984375 
z
M 54.390625 6.78125 
Q 54.390625 -7.171875 48.1875 -13.984375 
Q 42 -20.796875 29.203125 -20.796875 
Q 24.46875 -20.796875 20.265625 -20.09375 
Q 16.0625 -19.390625 12.109375 -17.921875 
L 12.109375 -9.1875 
Q 16.0625 -11.328125 19.921875 -12.34375 
Q 23.78125 -13.375 27.78125 -13.375 
Q 36.625 -13.375 41.015625 -8.765625 
Q 45.40625 -4.15625 45.40625 5.171875 
L 45.40625 9.625 
Q 42.625 4.78125 38.28125 2.390625 
Q 33.9375 0 27.875 0 
Q 17.828125 0 11.671875 7.65625 
Q 5.515625 15.328125 5.515625 27.984375 
Q 5.515625 40.671875 11.671875 48.328125 
Q 17.828125 56 27.875 56 
Q 33.9375 56 38.28125 53.609375 
Q 42.625 51.21875 45.40625 46.390625 
L 45.40625 54.6875 
L 54.390625 54.6875 
z
" id="DejaVuSans-67"/>
     </defs>
     <g transform="translate(954.329687 147.032812)scale(0.1 -0.1)">
      <use xlink:href="#DejaVuSans-62"/>
      <use x="63.476562" xlink:href="#DejaVuSans-65"/>
      <use x="125" xlink:href="#DejaVuSans-73"/>
      <use x="177.099609" xlink:href="#DejaVuSans-74"/>
      <use x="216.308594" xlink:href="#DejaVuSans-20"/>
      <use x="248.095703" xlink:href="#DejaVuSans-61"/>
      <use x="309.375" xlink:href="#DejaVuSans-76"/>
      <use x="368.554688" xlink:href="#DejaVuSans-67"/>
      <use x="432.03125" xlink:href="#DejaVuSans-20"/>
      <use x="463.818359" xlink:href="#DejaVuSans-73"/>
      <use x="515.917969" xlink:href="#DejaVuSans-63"/>
      <use x="570.898438" xlink:href="#DejaVuSans-6f"/>
      <use x="632.080078" xlink:href="#DejaVuSans-72"/>
      <use x="673.162109" xlink:href="#DejaVuSans-65"/>
     </g>
    </g>
   </g>
  </g>
 </g>
 <defs>
  <clipPath id="pcd69ea7818">
   <rect height="543.6" width="892.8" x="144" y="86.4"/>
  </clipPath>
 </defs>
</svg>
