<?xml version="1.0" encoding="utf-8" standalone="no"?>
<!DOCTYPE svg PUBLIC "-//W3C//DTD SVG 1.1//EN"
  "http://www.w3.org/Graphics/SVG/1.1/DTD/svg11.dtd">
<!-- Created with matplotlib (http://matplotlib.org/) -->
<svg height="720pt" version="1.1" viewBox="0 0 1152 720" width="1152pt" xmlns="http://www.w3.org/2000/svg" xmlns:xlink="http://www.w3.org/1999/xlink">
 <defs>
  <style type="text/css">
*{stroke-linecap:butt;stroke-linejoin:round;}
  </style>
 </defs>
 <g id="figure_1">
  <g id="patch_1">
   <path d="M 0 720 
L 1152 720 
L 1152 0 
L 0 0 
z
" style="fill:#ffffff;"/>
  </g>
  <g id="axes_1">
   <g id="patch_2">
    <path d="M 144 630 
L 1036.8 630 
L 1036.8 86.4 
L 144 86.4 
z
" style="fill:#ffffff;"/>
   </g>
   <g id="matplotlib.axis_1">
    <g id="xtick_1">
     <g id="line2d_1">
      <defs>
       <path d="M 0 0 
L 0 3.5 
" id="m2f8e94d5a3" style="stroke:#000000;stroke-width:0.8;"/>
      </defs>
      <g>
       <use style="stroke:#000000;stroke-width:0.8;" x="182.955292" xlink:href="#m2f8e94d5a3" y="630"/>
      </g>
     </g>
     <g id="text_1">
      <!-- 0 -->
      <defs>
       <path d="M 31.78125 66.40625 
Q 24.171875 66.40625 20.328125 58.90625 
Q 16.5 51.421875 16.5 36.375 
Q 16.5 21.390625 20.328125 13.890625 
Q 24.171875 6.390625 31.78125 6.390625 
Q 39.453125 6.390625 43.28125 13.890625 
Q 47.125 21.390625 47.125 36.375 
Q 47.125 51.421875 43.28125 58.90625 
Q 39.453125 66.40625 31.78125 66.40625 
z
M 31.78125 74.21875 
Q 44.046875 74.21875 50.515625 64.515625 
Q 56.984375 54.828125 56.984375 36.375 
Q 56.984375 17.96875 50.515625 8.265625 
Q 44.046875 -1.421875 31.78125 -1.421875 
Q 19.53125 -1.421875 13.0625 8.265625 
Q 6.59375 17.96875 6.59375 36.375 
Q 6.59375 54.828125 13.0625 64.515625 
Q 19.53125 74.21875 31.78125 74.21875 
z
" id="DejaVuSans-30"/>
      </defs>
      <g transform="translate(179.774042 644.598438)scale(0.1 -0.1)">
       <use xlink:href="#DejaVuSans-30"/>
      </g>
     </g>
    </g>
    <g id="xtick_2">
     <g id="line2d_2">
      <g>
       <use style="stroke:#000000;stroke-width:0.8;" x="345.60787" xlink:href="#m2f8e94d5a3" y="630"/>
      </g>
     </g>
     <g id="text_2">
      <!-- 100 -->
      <defs>
       <path d="M 12.40625 8.296875 
L 28.515625 8.296875 
L 28.515625 63.921875 
L 10.984375 60.40625 
L 10.984375 69.390625 
L 28.421875 72.90625 
L 38.28125 72.90625 
L 38.28125 8.296875 
L 54.390625 8.296875 
L 54.390625 0 
L 12.40625 0 
z
" id="DejaVuSans-31"/>
      </defs>
      <g transform="translate(336.06412 644.598438)scale(0.1 -0.1)">
       <use xlink:href="#DejaVuSans-31"/>
       <use x="63.623047" xlink:href="#DejaVuSans-30"/>
       <use x="127.246094" xlink:href="#DejaVuSans-30"/>
      </g>
     </g>
    </g>
    <g id="xtick_3">
     <g id="line2d_3">
      <g>
       <use style="stroke:#000000;stroke-width:0.8;" x="508.260448" xlink:href="#m2f8e94d5a3" y="630"/>
      </g>
     </g>
     <g id="text_3">
      <!-- 200 -->
      <defs>
       <path d="M 19.1875 8.296875 
L 53.609375 8.296875 
L 53.609375 0 
L 7.328125 0 
L 7.328125 8.296875 
Q 12.9375 14.109375 22.625 23.890625 
Q 32.328125 33.6875 34.8125 36.53125 
Q 39.546875 41.84375 41.421875 45.53125 
Q 43.3125 49.21875 43.3125 52.78125 
Q 43.3125 58.59375 39.234375 62.25 
Q 35.15625 65.921875 28.609375 65.921875 
Q 23.96875 65.921875 18.8125 64.3125 
Q 13.671875 62.703125 7.8125 59.421875 
L 7.8125 69.390625 
Q 13.765625 71.78125 18.9375 73 
Q 24.125 74.21875 28.421875 74.21875 
Q 39.75 74.21875 46.484375 68.546875 
Q 53.21875 62.890625 53.21875 53.421875 
Q 53.21875 48.921875 51.53125 44.890625 
Q 49.859375 40.875 45.40625 35.40625 
Q 44.1875 33.984375 37.640625 27.21875 
Q 31.109375 20.453125 19.1875 8.296875 
z
" id="DejaVuSans-32"/>
      </defs>
      <g transform="translate(498.716698 644.598438)scale(0.1 -0.1)">
       <use xlink:href="#DejaVuSans-32"/>
       <use x="63.623047" xlink:href="#DejaVuSans-30"/>
       <use x="127.246094" xlink:href="#DejaVuSans-30"/>
      </g>
     </g>
    </g>
    <g id="xtick_4">
     <g id="line2d_4">
      <g>
       <use style="stroke:#000000;stroke-width:0.8;" x="670.913026" xlink:href="#m2f8e94d5a3" y="630"/>
      </g>
     </g>
     <g id="text_4">
      <!-- 300 -->
      <defs>
       <path d="M 40.578125 39.3125 
Q 47.65625 37.796875 51.625 33 
Q 55.609375 28.21875 55.609375 21.1875 
Q 55.609375 10.40625 48.1875 4.484375 
Q 40.765625 -1.421875 27.09375 -1.421875 
Q 22.515625 -1.421875 17.65625 -0.515625 
Q 12.796875 0.390625 7.625 2.203125 
L 7.625 11.71875 
Q 11.71875 9.328125 16.59375 8.109375 
Q 21.484375 6.890625 26.8125 6.890625 
Q 36.078125 6.890625 40.9375 10.546875 
Q 45.796875 14.203125 45.796875 21.1875 
Q 45.796875 27.640625 41.28125 31.265625 
Q 36.765625 34.90625 28.71875 34.90625 
L 20.21875 34.90625 
L 20.21875 43.015625 
L 29.109375 43.015625 
Q 36.375 43.015625 40.234375 45.921875 
Q 44.09375 48.828125 44.09375 54.296875 
Q 44.09375 59.90625 40.109375 62.90625 
Q 36.140625 65.921875 28.71875 65.921875 
Q 24.65625 65.921875 20.015625 65.03125 
Q 15.375 64.15625 9.8125 62.3125 
L 9.8125 71.09375 
Q 15.4375 72.65625 20.34375 73.4375 
Q 25.25 74.21875 29.59375 74.21875 
Q 40.828125 74.21875 47.359375 69.109375 
Q 53.90625 64.015625 53.90625 55.328125 
Q 53.90625 49.265625 50.4375 45.09375 
Q 46.96875 40.921875 40.578125 39.3125 
z
" id="DejaVuSans-33"/>
      </defs>
      <g transform="translate(661.369276 644.598438)scale(0.1 -0.1)">
       <use xlink:href="#DejaVuSans-33"/>
       <use x="63.623047" xlink:href="#DejaVuSans-30"/>
       <use x="127.246094" xlink:href="#DejaVuSans-30"/>
      </g>
     </g>
    </g>
    <g id="xtick_5">
     <g id="line2d_5">
      <g>
       <use style="stroke:#000000;stroke-width:0.8;" x="833.565604" xlink:href="#m2f8e94d5a3" y="630"/>
      </g>
     </g>
     <g id="text_5">
      <!-- 400 -->
      <defs>
       <path d="M 37.796875 64.3125 
L 12.890625 25.390625 
L 37.796875 25.390625 
z
M 35.203125 72.90625 
L 47.609375 72.90625 
L 47.609375 25.390625 
L 58.015625 25.390625 
L 58.015625 17.1875 
L 47.609375 17.1875 
L 47.609375 0 
L 37.796875 0 
L 37.796875 17.1875 
L 4.890625 17.1875 
L 4.890625 26.703125 
z
" id="DejaVuSans-34"/>
      </defs>
      <g transform="translate(824.021854 644.598438)scale(0.1 -0.1)">
       <use xlink:href="#DejaVuSans-34"/>
       <use x="63.623047" xlink:href="#DejaVuSans-30"/>
       <use x="127.246094" xlink:href="#DejaVuSans-30"/>
      </g>
     </g>
    </g>
    <g id="xtick_6">
     <g id="line2d_6">
      <g>
       <use style="stroke:#000000;stroke-width:0.8;" x="996.218182" xlink:href="#m2f8e94d5a3" y="630"/>
      </g>
     </g>
     <g id="text_6">
      <!-- 500 -->
      <defs>
       <path d="M 10.796875 72.90625 
L 49.515625 72.90625 
L 49.515625 64.59375 
L 19.828125 64.59375 
L 19.828125 46.734375 
Q 21.96875 47.46875 24.109375 47.828125 
Q 26.265625 48.1875 28.421875 48.1875 
Q 40.625 48.1875 47.75 41.5 
Q 54.890625 34.8125 54.890625 23.390625 
Q 54.890625 11.625 47.5625 5.09375 
Q 40.234375 -1.421875 26.90625 -1.421875 
Q 22.3125 -1.421875 17.546875 -0.640625 
Q 12.796875 0.140625 7.71875 1.703125 
L 7.71875 11.625 
Q 12.109375 9.234375 16.796875 8.0625 
Q 21.484375 6.890625 26.703125 6.890625 
Q 35.15625 6.890625 40.078125 11.328125 
Q 45.015625 15.765625 45.015625 23.390625 
Q 45.015625 31 40.078125 35.4375 
Q 35.15625 39.890625 26.703125 39.890625 
Q 22.75 39.890625 18.8125 39.015625 
Q 14.890625 38.140625 10.796875 36.28125 
z
" id="DejaVuSans-35"/>
      </defs>
      <g transform="translate(986.674432 644.598438)scale(0.1 -0.1)">
       <use xlink:href="#DejaVuSans-35"/>
       <use x="63.623047" xlink:href="#DejaVuSans-30"/>
       <use x="127.246094" xlink:href="#DejaVuSans-30"/>
      </g>
     </g>
    </g>
    <g id="text_7">
     <!-- generation -->
     <defs>
      <path d="M 45.40625 27.984375 
Q 45.40625 37.75 41.375 43.109375 
Q 37.359375 48.484375 30.078125 48.484375 
Q 22.859375 48.484375 18.828125 43.109375 
Q 14.796875 37.75 14.796875 27.984375 
Q 14.796875 18.265625 18.828125 12.890625 
Q 22.859375 7.515625 30.078125 7.515625 
Q 37.359375 7.515625 41.375 12.890625 
Q 45.40625 18.265625 45.40625 27.984375 
z
M 54.390625 6.78125 
Q 54.390625 -7.171875 48.1875 -13.984375 
Q 42 -20.796875 29.203125 -20.796875 
Q 24.46875 -20.796875 20.265625 -20.09375 
Q 16.0625 -19.390625 12.109375 -17.921875 
L 12.109375 -9.1875 
Q 16.0625 -11.328125 19.921875 -12.34375 
Q 23.78125 -13.375 27.78125 -13.375 
Q 36.625 -13.375 41.015625 -8.765625 
Q 45.40625 -4.15625 45.40625 5.171875 
L 45.40625 9.625 
Q 42.625 4.78125 38.28125 2.390625 
Q 33.9375 0 27.875 0 
Q 17.828125 0 11.671875 7.65625 
Q 5.515625 15.328125 5.515625 27.984375 
Q 5.515625 40.671875 11.671875 48.328125 
Q 17.828125 56 27.875 56 
Q 33.9375 56 38.28125 53.609375 
Q 42.625 51.21875 45.40625 46.390625 
L 45.40625 54.6875 
L 54.390625 54.6875 
z
" id="DejaVuSans-67"/>
      <path d="M 56.203125 29.59375 
L 56.203125 25.203125 
L 14.890625 25.203125 
Q 15.484375 15.921875 20.484375 11.0625 
Q 25.484375 6.203125 34.421875 6.203125 
Q 39.59375 6.203125 44.453125 7.46875 
Q 49.3125 8.734375 54.109375 11.28125 
L 54.109375 2.78125 
Q 49.265625 0.734375 44.1875 -0.34375 
Q 39.109375 -1.421875 33.890625 -1.421875 
Q 20.796875 -1.421875 13.15625 6.1875 
Q 5.515625 13.8125 5.515625 26.8125 
Q 5.515625 40.234375 12.765625 48.109375 
Q 20.015625 56 32.328125 56 
Q 43.359375 56 49.78125 48.890625 
Q 56.203125 41.796875 56.203125 29.59375 
z
M 47.21875 32.234375 
Q 47.125 39.59375 43.09375 43.984375 
Q 39.0625 48.390625 32.421875 48.390625 
Q 24.90625 48.390625 20.390625 44.140625 
Q 15.875 39.890625 15.1875 32.171875 
z
" id="DejaVuSans-65"/>
      <path d="M 54.890625 33.015625 
L 54.890625 0 
L 45.90625 0 
L 45.90625 32.71875 
Q 45.90625 40.484375 42.875 44.328125 
Q 39.84375 48.1875 33.796875 48.1875 
Q 26.515625 48.1875 22.3125 43.546875 
Q 18.109375 38.921875 18.109375 30.90625 
L 18.109375 0 
L 9.078125 0 
L 9.078125 54.6875 
L 18.109375 54.6875 
L 18.109375 46.1875 
Q 21.34375 51.125 25.703125 53.5625 
Q 30.078125 56 35.796875 56 
Q 45.21875 56 50.046875 50.171875 
Q 54.890625 44.34375 54.890625 33.015625 
z
" id="DejaVuSans-6e"/>
      <path d="M 41.109375 46.296875 
Q 39.59375 47.171875 37.8125 47.578125 
Q 36.03125 48 33.890625 48 
Q 26.265625 48 22.1875 43.046875 
Q 18.109375 38.09375 18.109375 28.8125 
L 18.109375 0 
L 9.078125 0 
L 9.078125 54.6875 
L 18.109375 54.6875 
L 18.109375 46.1875 
Q 20.953125 51.171875 25.484375 53.578125 
Q 30.03125 56 36.53125 56 
Q 37.453125 56 38.578125 55.875 
Q 39.703125 55.765625 41.0625 55.515625 
z
" id="DejaVuSans-72"/>
      <path d="M 34.28125 27.484375 
Q 23.390625 27.484375 19.1875 25 
Q 14.984375 22.515625 14.984375 16.5 
Q 14.984375 11.71875 18.140625 8.90625 
Q 21.296875 6.109375 26.703125 6.109375 
Q 34.1875 6.109375 38.703125 11.40625 
Q 43.21875 16.703125 43.21875 25.484375 
L 43.21875 27.484375 
z
M 52.203125 31.203125 
L 52.203125 0 
L 43.21875 0 
L 43.21875 8.296875 
Q 40.140625 3.328125 35.546875 0.953125 
Q 30.953125 -1.421875 24.3125 -1.421875 
Q 15.921875 -1.421875 10.953125 3.296875 
Q 6 8.015625 6 15.921875 
Q 6 25.140625 12.171875 29.828125 
Q 18.359375 34.515625 30.609375 34.515625 
L 43.21875 34.515625 
L 43.21875 35.40625 
Q 43.21875 41.609375 39.140625 45 
Q 35.0625 48.390625 27.6875 48.390625 
Q 23 48.390625 18.546875 47.265625 
Q 14.109375 46.140625 10.015625 43.890625 
L 10.015625 52.203125 
Q 14.9375 54.109375 19.578125 55.046875 
Q 24.21875 56 28.609375 56 
Q 40.484375 56 46.34375 49.84375 
Q 52.203125 43.703125 52.203125 31.203125 
z
" id="DejaVuSans-61"/>
      <path d="M 18.3125 70.21875 
L 18.3125 54.6875 
L 36.8125 54.6875 
L 36.8125 47.703125 
L 18.3125 47.703125 
L 18.3125 18.015625 
Q 18.3125 11.328125 20.140625 9.421875 
Q 21.96875 7.515625 27.59375 7.515625 
L 36.8125 7.515625 
L 36.8125 0 
L 27.59375 0 
Q 17.1875 0 13.234375 3.875 
Q 9.28125 7.765625 9.28125 18.015625 
L 9.28125 47.703125 
L 2.6875 47.703125 
L 2.6875 54.6875 
L 9.28125 54.6875 
L 9.28125 70.21875 
z
" id="DejaVuSans-74"/>
      <path d="M 9.421875 54.6875 
L 18.40625 54.6875 
L 18.40625 0 
L 9.421875 0 
z
M 9.421875 75.984375 
L 18.40625 75.984375 
L 18.40625 64.59375 
L 9.421875 64.59375 
z
" id="DejaVuSans-69"/>
      <path d="M 30.609375 48.390625 
Q 23.390625 48.390625 19.1875 42.75 
Q 14.984375 37.109375 14.984375 27.296875 
Q 14.984375 17.484375 19.15625 11.84375 
Q 23.34375 6.203125 30.609375 6.203125 
Q 37.796875 6.203125 41.984375 11.859375 
Q 46.1875 17.53125 46.1875 27.296875 
Q 46.1875 37.015625 41.984375 42.703125 
Q 37.796875 48.390625 30.609375 48.390625 
z
M 30.609375 56 
Q 42.328125 56 49.015625 48.375 
Q 55.71875 40.765625 55.71875 27.296875 
Q 55.71875 13.875 49.015625 6.21875 
Q 42.328125 -1.421875 30.609375 -1.421875 
Q 18.84375 -1.421875 12.171875 6.21875 
Q 5.515625 13.875 5.515625 27.296875 
Q 5.515625 40.765625 12.171875 48.375 
Q 18.84375 56 30.609375 56 
z
" id="DejaVuSans-6f"/>
     </defs>
     <g transform="translate(563.207031 658.276562)scale(0.1 -0.1)">
      <use xlink:href="#DejaVuSans-67"/>
      <use x="63.476562" xlink:href="#DejaVuSans-65"/>
      <use x="125" xlink:href="#DejaVuSans-6e"/>
      <use x="188.378906" xlink:href="#DejaVuSans-65"/>
      <use x="249.902344" xlink:href="#DejaVuSans-72"/>
      <use x="291.015625" xlink:href="#DejaVuSans-61"/>
      <use x="352.294922" xlink:href="#DejaVuSans-74"/>
      <use x="391.503906" xlink:href="#DejaVuSans-69"/>
      <use x="419.287109" xlink:href="#DejaVuSans-6f"/>
      <use x="480.46875" xlink:href="#DejaVuSans-6e"/>
     </g>
    </g>
   </g>
   <g id="matplotlib.axis_2">
    <g id="ytick_1">
     <g id="line2d_7">
      <defs>
       <path d="M 0 0 
L -3.5 0 
" id="ma7182afa1f" style="stroke:#000000;stroke-width:0.8;"/>
      </defs>
      <g>
       <use style="stroke:#000000;stroke-width:0.8;" x="144" xlink:href="#ma7182afa1f" y="581.910912"/>
      </g>
     </g>
     <g id="text_8">
      <!-- 200 -->
      <g transform="translate(117.9125 585.71013)scale(0.1 -0.1)">
       <use xlink:href="#DejaVuSans-32"/>
       <use x="63.623047" xlink:href="#DejaVuSans-30"/>
       <use x="127.246094" xlink:href="#DejaVuSans-30"/>
      </g>
     </g>
    </g>
    <g id="ytick_2">
     <g id="line2d_8">
      <g>
       <use style="stroke:#000000;stroke-width:0.8;" x="144" xlink:href="#ma7182afa1f" y="476.238607"/>
      </g>
     </g>
     <g id="text_9">
      <!-- 400 -->
      <g transform="translate(117.9125 480.037825)scale(0.1 -0.1)">
       <use xlink:href="#DejaVuSans-34"/>
       <use x="63.623047" xlink:href="#DejaVuSans-30"/>
       <use x="127.246094" xlink:href="#DejaVuSans-30"/>
      </g>
     </g>
    </g>
    <g id="ytick_3">
     <g id="line2d_9">
      <g>
       <use style="stroke:#000000;stroke-width:0.8;" x="144" xlink:href="#ma7182afa1f" y="370.566301"/>
      </g>
     </g>
     <g id="text_10">
      <!-- 600 -->
      <defs>
       <path d="M 33.015625 40.375 
Q 26.375 40.375 22.484375 35.828125 
Q 18.609375 31.296875 18.609375 23.390625 
Q 18.609375 15.53125 22.484375 10.953125 
Q 26.375 6.390625 33.015625 6.390625 
Q 39.65625 6.390625 43.53125 10.953125 
Q 47.40625 15.53125 47.40625 23.390625 
Q 47.40625 31.296875 43.53125 35.828125 
Q 39.65625 40.375 33.015625 40.375 
z
M 52.59375 71.296875 
L 52.59375 62.3125 
Q 48.875 64.0625 45.09375 64.984375 
Q 41.3125 65.921875 37.59375 65.921875 
Q 27.828125 65.921875 22.671875 59.328125 
Q 17.53125 52.734375 16.796875 39.40625 
Q 19.671875 43.65625 24.015625 45.921875 
Q 28.375 48.1875 33.59375 48.1875 
Q 44.578125 48.1875 50.953125 41.515625 
Q 57.328125 34.859375 57.328125 23.390625 
Q 57.328125 12.15625 50.6875 5.359375 
Q 44.046875 -1.421875 33.015625 -1.421875 
Q 20.359375 -1.421875 13.671875 8.265625 
Q 6.984375 17.96875 6.984375 36.375 
Q 6.984375 53.65625 15.1875 63.9375 
Q 23.390625 74.21875 37.203125 74.21875 
Q 40.921875 74.21875 44.703125 73.484375 
Q 48.484375 72.75 52.59375 71.296875 
z
" id="DejaVuSans-36"/>
      </defs>
      <g transform="translate(117.9125 374.36552)scale(0.1 -0.1)">
       <use xlink:href="#DejaVuSans-36"/>
       <use x="63.623047" xlink:href="#DejaVuSans-30"/>
       <use x="127.246094" xlink:href="#DejaVuSans-30"/>
      </g>
     </g>
    </g>
    <g id="ytick_4">
     <g id="line2d_10">
      <g>
       <use style="stroke:#000000;stroke-width:0.8;" x="144" xlink:href="#ma7182afa1f" y="264.893996"/>
      </g>
     </g>
     <g id="text_11">
      <!-- 800 -->
      <defs>
       <path d="M 31.78125 34.625 
Q 24.75 34.625 20.71875 30.859375 
Q 16.703125 27.09375 16.703125 20.515625 
Q 16.703125 13.921875 20.71875 10.15625 
Q 24.75 6.390625 31.78125 6.390625 
Q 38.8125 6.390625 42.859375 10.171875 
Q 46.921875 13.96875 46.921875 20.515625 
Q 46.921875 27.09375 42.890625 30.859375 
Q 38.875 34.625 31.78125 34.625 
z
M 21.921875 38.8125 
Q 15.578125 40.375 12.03125 44.71875 
Q 8.5 49.078125 8.5 55.328125 
Q 8.5 64.0625 14.71875 69.140625 
Q 20.953125 74.21875 31.78125 74.21875 
Q 42.671875 74.21875 48.875 69.140625 
Q 55.078125 64.0625 55.078125 55.328125 
Q 55.078125 49.078125 51.53125 44.71875 
Q 48 40.375 41.703125 38.8125 
Q 48.828125 37.15625 52.796875 32.3125 
Q 56.78125 27.484375 56.78125 20.515625 
Q 56.78125 9.90625 50.3125 4.234375 
Q 43.84375 -1.421875 31.78125 -1.421875 
Q 19.734375 -1.421875 13.25 4.234375 
Q 6.78125 9.90625 6.78125 20.515625 
Q 6.78125 27.484375 10.78125 32.3125 
Q 14.796875 37.15625 21.921875 38.8125 
z
M 18.3125 54.390625 
Q 18.3125 48.734375 21.84375 45.5625 
Q 25.390625 42.390625 31.78125 42.390625 
Q 38.140625 42.390625 41.71875 45.5625 
Q 45.3125 48.734375 45.3125 54.390625 
Q 45.3125 60.0625 41.71875 63.234375 
Q 38.140625 66.40625 31.78125 66.40625 
Q 25.390625 66.40625 21.84375 63.234375 
Q 18.3125 60.0625 18.3125 54.390625 
z
" id="DejaVuSans-38"/>
      </defs>
      <g transform="translate(117.9125 268.693215)scale(0.1 -0.1)">
       <use xlink:href="#DejaVuSans-38"/>
       <use x="63.623047" xlink:href="#DejaVuSans-30"/>
       <use x="127.246094" xlink:href="#DejaVuSans-30"/>
      </g>
     </g>
    </g>
    <g id="ytick_5">
     <g id="line2d_11">
      <g>
       <use style="stroke:#000000;stroke-width:0.8;" x="144" xlink:href="#ma7182afa1f" y="159.221691"/>
      </g>
     </g>
     <g id="text_12">
      <!-- 1000 -->
      <g transform="translate(111.55 163.02091)scale(0.1 -0.1)">
       <use xlink:href="#DejaVuSans-31"/>
       <use x="63.623047" xlink:href="#DejaVuSans-30"/>
       <use x="127.246094" xlink:href="#DejaVuSans-30"/>
       <use x="190.869141" xlink:href="#DejaVuSans-30"/>
      </g>
     </g>
    </g>
    <g id="text_13">
     <!-- cumulative reward -->
     <defs>
      <path d="M 48.78125 52.59375 
L 48.78125 44.1875 
Q 44.96875 46.296875 41.140625 47.34375 
Q 37.3125 48.390625 33.40625 48.390625 
Q 24.65625 48.390625 19.8125 42.84375 
Q 14.984375 37.3125 14.984375 27.296875 
Q 14.984375 17.28125 19.8125 11.734375 
Q 24.65625 6.203125 33.40625 6.203125 
Q 37.3125 6.203125 41.140625 7.25 
Q 44.96875 8.296875 48.78125 10.40625 
L 48.78125 2.09375 
Q 45.015625 0.34375 40.984375 -0.53125 
Q 36.96875 -1.421875 32.421875 -1.421875 
Q 20.0625 -1.421875 12.78125 6.34375 
Q 5.515625 14.109375 5.515625 27.296875 
Q 5.515625 40.671875 12.859375 48.328125 
Q 20.21875 56 33.015625 56 
Q 37.15625 56 41.109375 55.140625 
Q 45.0625 54.296875 48.78125 52.59375 
z
" id="DejaVuSans-63"/>
      <path d="M 8.5 21.578125 
L 8.5 54.6875 
L 17.484375 54.6875 
L 17.484375 21.921875 
Q 17.484375 14.15625 20.5 10.265625 
Q 23.53125 6.390625 29.59375 6.390625 
Q 36.859375 6.390625 41.078125 11.03125 
Q 45.3125 15.671875 45.3125 23.6875 
L 45.3125 54.6875 
L 54.296875 54.6875 
L 54.296875 0 
L 45.3125 0 
L 45.3125 8.40625 
Q 42.046875 3.421875 37.71875 1 
Q 33.40625 -1.421875 27.6875 -1.421875 
Q 18.265625 -1.421875 13.375 4.4375 
Q 8.5 10.296875 8.5 21.578125 
z
M 31.109375 56 
z
" id="DejaVuSans-75"/>
      <path d="M 52 44.1875 
Q 55.375 50.25 60.0625 53.125 
Q 64.75 56 71.09375 56 
Q 79.640625 56 84.28125 50.015625 
Q 88.921875 44.046875 88.921875 33.015625 
L 88.921875 0 
L 79.890625 0 
L 79.890625 32.71875 
Q 79.890625 40.578125 77.09375 44.375 
Q 74.3125 48.1875 68.609375 48.1875 
Q 61.625 48.1875 57.5625 43.546875 
Q 53.515625 38.921875 53.515625 30.90625 
L 53.515625 0 
L 44.484375 0 
L 44.484375 32.71875 
Q 44.484375 40.625 41.703125 44.40625 
Q 38.921875 48.1875 33.109375 48.1875 
Q 26.21875 48.1875 22.15625 43.53125 
Q 18.109375 38.875 18.109375 30.90625 
L 18.109375 0 
L 9.078125 0 
L 9.078125 54.6875 
L 18.109375 54.6875 
L 18.109375 46.1875 
Q 21.1875 51.21875 25.484375 53.609375 
Q 29.78125 56 35.6875 56 
Q 41.65625 56 45.828125 52.96875 
Q 50 49.953125 52 44.1875 
z
" id="DejaVuSans-6d"/>
      <path d="M 9.421875 75.984375 
L 18.40625 75.984375 
L 18.40625 0 
L 9.421875 0 
z
" id="DejaVuSans-6c"/>
      <path d="M 2.984375 54.6875 
L 12.5 54.6875 
L 29.59375 8.796875 
L 46.6875 54.6875 
L 56.203125 54.6875 
L 35.6875 0 
L 23.484375 0 
z
" id="DejaVuSans-76"/>
      <path id="DejaVuSans-20"/>
      <path d="M 4.203125 54.6875 
L 13.1875 54.6875 
L 24.421875 12.015625 
L 35.59375 54.6875 
L 46.1875 54.6875 
L 57.421875 12.015625 
L 68.609375 54.6875 
L 77.59375 54.6875 
L 63.28125 0 
L 52.6875 0 
L 40.921875 44.828125 
L 29.109375 0 
L 18.5 0 
z
" id="DejaVuSans-77"/>
      <path d="M 45.40625 46.390625 
L 45.40625 75.984375 
L 54.390625 75.984375 
L 54.390625 0 
L 45.40625 0 
L 45.40625 8.203125 
Q 42.578125 3.328125 38.25 0.953125 
Q 33.9375 -1.421875 27.875 -1.421875 
Q 17.96875 -1.421875 11.734375 6.484375 
Q 5.515625 14.40625 5.515625 27.296875 
Q 5.515625 40.1875 11.734375 48.09375 
Q 17.96875 56 27.875 56 
Q 33.9375 56 38.25 53.625 
Q 42.578125 51.265625 45.40625 46.390625 
z
M 14.796875 27.296875 
Q 14.796875 17.390625 18.875 11.75 
Q 22.953125 6.109375 30.078125 6.109375 
Q 37.203125 6.109375 41.296875 11.75 
Q 45.40625 17.390625 45.40625 27.296875 
Q 45.40625 37.203125 41.296875 42.84375 
Q 37.203125 48.484375 30.078125 48.484375 
Q 22.953125 48.484375 18.875 42.84375 
Q 14.796875 37.203125 14.796875 27.296875 
z
" id="DejaVuSans-64"/>
     </defs>
     <g transform="translate(105.470312 405.096875)rotate(-90)scale(0.1 -0.1)">
      <use xlink:href="#DejaVuSans-63"/>
      <use x="54.980469" xlink:href="#DejaVuSans-75"/>
      <use x="118.359375" xlink:href="#DejaVuSans-6d"/>
      <use x="215.771484" xlink:href="#DejaVuSans-75"/>
      <use x="279.150391" xlink:href="#DejaVuSans-6c"/>
      <use x="306.933594" xlink:href="#DejaVuSans-61"/>
      <use x="368.212891" xlink:href="#DejaVuSans-74"/>
      <use x="407.421875" xlink:href="#DejaVuSans-69"/>
      <use x="435.205078" xlink:href="#DejaVuSans-76"/>
      <use x="494.384766" xlink:href="#DejaVuSans-65"/>
      <use x="555.908203" xlink:href="#DejaVuSans-20"/>
      <use x="587.695312" xlink:href="#DejaVuSans-72"/>
      <use x="628.777344" xlink:href="#DejaVuSans-65"/>
      <use x="690.300781" xlink:href="#DejaVuSans-77"/>
      <use x="772.087891" xlink:href="#DejaVuSans-61"/>
      <use x="833.367188" xlink:href="#DejaVuSans-72"/>
      <use x="874.464844" xlink:href="#DejaVuSans-64"/>
     </g>
    </g>
   </g>
   <g id="line2d_12">
    <path clip-path="url(#p4763631808)" d="M 184.581818 549.046825 
L 186.208344 555.535104 
L 187.83487 542.431738 
L 189.461396 537.417588 
L 191.087921 539.356674 
L 192.714447 533.671504 
L 194.340973 532.012449 
L 195.967499 518.132392 
L 197.594024 524.129295 
L 199.22055 509.831832 
L 200.847076 500.099413 
L 202.473602 489.304987 
L 204.100128 487.947098 
L 205.726653 488.200711 
L 207.353179 483.049187 
L 208.979705 491.783003 
L 210.606231 483.688504 
L 212.232756 490.953475 
L 213.859282 476.666579 
L 215.485808 468.101839 
L 217.112334 467.584045 
L 218.73886 456.1186 
L 220.365385 481.485236 
L 221.991911 452.890311 
L 223.618437 475.171316 
L 225.244963 455.252087 
L 226.871488 433.351502 
L 228.498014 443.437923 
L 230.12454 465.734779 
L 231.751066 466.516754 
L 233.377592 411.963427 
L 235.004117 419.688073 
L 236.630643 437.509707 
L 238.257169 436.246923 
L 239.883695 428.522277 
L 241.51022 408.111671 
L 243.136746 405.189832 
L 244.763272 423.51341 
L 246.389798 403.335283 
L 248.016324 416.359395 
L 249.642849 438.983835 
L 251.269375 393.645133 
L 252.895901 389.608451 
L 254.522427 406.600558 
L 256.148952 427.486689 
L 257.775478 409.691472 
L 259.402004 386.306191 
L 261.02853 403.13979 
L 262.655056 407.688982 
L 264.281581 395.932938 
L 265.908107 428.638517 
L 267.534633 425.854052 
L 269.161159 396.878705 
L 270.787684 398.696269 
L 272.41421 378.391336 
L 274.040736 409.025737 
L 275.667262 391.996645 
L 277.293788 427.174955 
L 278.920313 408.412838 
L 280.546839 380.615738 
L 282.173365 384.884899 
L 283.799891 411.619992 
L 285.426416 417.220624 
L 287.052942 417.035698 
L 288.679468 410.621389 
L 290.305994 392.540857 
L 291.93252 399.72129 
L 293.559045 415.038491 
L 295.185571 391.758882 
L 296.812097 402.378949 
L 298.438623 422.726151 
L 300.065148 388.969133 
L 301.691674 396.276373 
L 303.3182 396.218254 
L 304.944726 390.828966 
L 306.571252 388.641549 
L 308.197777 403.816092 
L 309.824303 401.031627 
L 311.450829 405.512133 
L 313.077355 406.553005 
L 314.70388 398.14149 
L 316.330406 402.194022 
L 317.956932 390.041707 
L 319.583458 385.973324 
L 321.209984 391.468283 
L 322.836509 407.678415 
L 324.463035 381.582639 
L 326.089561 372.531806 
L 327.716087 398.981584 
L 329.342612 394.479944 
L 330.969138 382.988081 
L 332.595664 388.461906 
L 334.22219 387.019479 
L 335.848716 367.211206 
L 337.475241 408.074686 
L 339.101767 417.019847 
L 340.728293 380.621021 
L 342.354819 386.84512 
L 343.981345 377.720317 
L 345.60787 414.156127 
L 347.234396 388.874028 
L 348.860922 397.401783 
L 350.487448 391.817002 
L 352.113973 394.136509 
L 353.740499 373.831576 
L 355.367025 401.063329 
L 356.993551 383.933848 
L 358.620077 391.986078 
L 360.246602 401.628676 
L 361.873128 391.531687 
L 363.499654 397.491605 
L 365.12618 407.83164 
L 366.752705 390.65989 
L 368.379231 384.382955 
L 370.005757 389.238598 
L 371.632283 376.145799 
L 373.258809 386.855687 
L 374.885334 406.029927 
L 376.51186 373.065452 
L 378.138386 408.07997 
L 381.391437 378.386052 
L 383.017963 398.807225 
L 384.644489 375.390242 
L 386.271015 368.738171 
L 387.897541 383.009215 
L 389.524066 387.954679 
L 391.150592 375.622721 
L 392.777118 380.975024 
L 394.403644 388.35095 
L 396.030169 383.770056 
L 397.656695 373.894979 
L 399.283221 398.696269 
L 400.909747 387.458019 
L 402.536273 383.759489 
L 404.162798 385.825382 
L 405.789324 394.051971 
L 407.41585 370.455346 
L 409.042376 384.610151 
L 410.668901 381.952492 
L 412.295427 374.201429 
L 413.921953 379.796777 
L 415.548479 389.497495 
L 417.175005 392.477454 
L 418.80153 396.413747 
L 420.428056 418.414721 
L 422.054582 389.883199 
L 423.681108 394.664871 
L 425.307633 391.737748 
L 426.934159 409.01517 
L 428.560685 399.03442 
L 430.187211 389.851497 
L 431.813737 401.607541 
L 433.440262 396.170701 
L 435.066788 385.804248 
L 436.693314 401.924558 
L 438.31984 409.078573 
L 439.946365 398.194326 
L 441.572891 392.128735 
L 443.199417 387.394616 
L 444.825943 403.604748 
L 446.452469 391.135416 
L 448.078994 412.169488 
L 449.70552 400.841417 
L 451.332046 407.139486 
L 452.958572 391.71133 
L 454.585097 405.675925 
L 457.838149 362.566908 
L 459.464675 392.377065 
L 461.091201 378.581546 
L 462.717726 379.437492 
L 464.344252 370.465913 
L 465.970778 401.274673 
L 467.597304 370.978423 
L 469.223829 366.101647 
L 470.850355 390.892369 
L 472.476881 395.27777 
L 474.103407 388.620415 
L 475.729933 388.224144 
L 477.356458 379.300118 
L 478.982984 386.739448 
L 480.60951 372.928078 
L 482.236036 385.545351 
L 483.862561 400.302488 
L 485.489087 388.805341 
L 487.115613 386.448849 
L 488.742139 382.544257 
L 490.368665 372.389149 
L 491.99519 391.019176 
L 493.621716 400.307772 
L 495.248242 365.198148 
L 496.874768 388.144889 
L 498.501293 370.291554 
L 500.127819 388.065635 
L 501.754345 366.143916 
L 503.380871 375.501198 
L 505.007397 392.350647 
L 506.633922 378.639666 
L 508.260448 383.722503 
L 509.886974 376.98061 
L 511.5135 397.565575 
L 513.140026 408.349434 
L 514.766551 385.112094 
L 516.393077 390.004722 
L 518.019603 387.426318 
L 519.646129 385.138512 
L 521.272654 390.554218 
L 522.89918 394.770543 
L 524.525706 382.454436 
L 526.152232 393.565879 
L 527.778758 396.392613 
L 529.405283 385.629889 
L 531.031809 387.674648 
L 532.658335 381.71473 
L 534.284861 367.713149 
L 535.911386 386.300908 
L 537.537912 406.737932 
L 539.164438 392.308378 
L 540.790964 385.328723 
L 542.41749 396.730764 
L 545.670541 369.768476 
L 547.297067 391.547538 
L 548.923593 386.422431 
L 550.550118 389.338986 
L 552.176644 398.088653 
L 553.80317 378.407187 
L 555.429696 379.28955 
L 557.056222 375.569885 
L 558.682747 409.575233 
L 560.309273 379.194445 
L 561.935799 400.746312 
L 563.562325 399.008002 
L 565.18885 400.608938 
L 566.815376 385.820099 
L 568.441902 378.803458 
L 570.068428 397.565575 
L 571.694954 383.865161 
L 573.321479 418.055435 
L 574.948005 394.664871 
L 576.574531 403.816092 
L 578.201057 397.840323 
L 579.827582 394.162927 
L 581.454108 389.967737 
L 583.080634 400.011889 
L 584.70716 384.467493 
L 586.333686 400.841417 
L 587.960211 403.720987 
L 589.586737 427.808989 
L 591.213263 393.486624 
L 592.839789 382.819005 
L 594.466314 377.556524 
L 596.09284 389.365405 
L 597.719366 395.040007 
L 599.345892 392.91071 
L 600.972418 402.283844 
L 602.598943 374.867164 
L 604.225469 397.285544 
L 605.851995 382.237808 
L 607.478521 387.357631 
L 609.105046 382.348764 
L 610.731572 420.866319 
L 612.358098 383.125455 
L 613.984624 398.52191 
L 615.61115 383.79119 
L 617.237675 409.52768 
L 618.864201 377.678048 
L 620.490727 391.970227 
L 622.117253 392.995248 
L 623.743778 399.657887 
L 625.370304 384.678838 
L 626.99683 392.081183 
L 628.623356 406.426198 
L 630.249882 399.488811 
L 631.876407 376.140516 
L 633.502933 402.664264 
L 635.129459 390.03114 
L 636.755985 385.096243 
L 638.38251 407.33498 
L 640.009036 406.907007 
L 641.635562 386.200519 
L 643.262088 394.865648 
L 644.888614 393.766656 
L 646.515139 380.103227 
L 648.141665 387.695782 
L 649.768191 392.535574 
L 651.394717 402.680115 
L 653.021242 393.77194 
L 654.647768 393.608148 
L 656.274294 364.817728 
L 657.90082 380.768963 
L 659.527346 379.241998 
L 661.153871 385.746128 
L 662.780397 382.158553 
L 664.406923 397.597277 
L 667.659974 380.41496 
L 670.913026 405.385326 
L 672.539552 393.000532 
L 674.166078 366.788517 
L 675.792603 398.432088 
L 677.419129 387.410467 
L 679.045655 387.605961 
L 680.672181 402.463487 
L 682.298707 372.912227 
L 683.925232 379.659403 
L 685.551758 382.348764 
L 687.178284 396.244672 
L 688.80481 399.309168 
L 690.431335 401.935125 
L 692.057861 372.198939 
L 693.684387 403.076386 
L 695.310913 381.59849 
L 696.937439 408.76684 
L 698.563964 378.560411 
L 700.19049 365.922004 
L 701.817016 393.238295 
L 703.443542 408.904214 
L 705.070067 398.437372 
L 706.696593 381.313175 
L 708.323119 401.670944 
L 709.949645 393.660984 
L 711.576171 410.764046 
L 713.202696 388.747222 
L 714.829222 375.770663 
L 716.455748 406.26769 
L 718.082274 389.375972 
L 719.708799 409.64392 
L 721.335325 391.71133 
L 722.961851 390.696876 
L 724.588377 408.116955 
L 726.214903 380.938038 
L 727.841428 390.939922 
L 729.467954 417.299878 
L 731.09448 406.901724 
L 732.721006 416.280141 
L 734.347531 378.6608 
L 735.974057 397.7188 
L 737.600583 399.245765 
L 739.227109 392.377065 
L 740.853635 379.09934 
L 742.48016 379.53788 
L 744.106686 395.372875 
L 745.733212 384.488628 
L 747.359738 400.814999 
L 748.986263 388.292831 
L 750.612789 388.768356 
L 752.239315 382.28536 
L 753.865841 373.974233 
L 755.492367 388.520026 
L 757.118892 390.950489 
L 758.745418 400.989358 
L 760.371944 377.873541 
L 761.99847 381.392429 
L 763.624995 388.974417 
L 765.251521 372.214789 
L 766.878047 399.071406 
L 768.504573 384.895466 
L 770.131099 384.256149 
L 771.757624 390.327023 
L 773.38415 373.525126 
L 775.010676 384.034237 
L 776.637202 398.986868 
L 778.263727 390.358724 
L 779.890253 398.838927 
L 781.516779 395.779713 
L 783.143305 382.34348 
L 784.769831 400.836133 
L 786.396356 378.644949 
L 788.022882 385.508365 
L 789.649408 404.053855 
L 791.275934 372.183088 
L 792.902459 418.842694 
L 794.528985 383.373785 
L 796.155511 368.616647 
L 797.782037 399.853381 
L 799.408563 393.782507 
L 801.035088 406.362795 
L 802.661614 398.553611 
L 804.28814 397.681815 
L 805.914666 391.299208 
L 807.541191 378.026766 
L 809.167717 400.207383 
L 810.794243 386.078996 
L 812.420769 403.636449 
L 814.047295 370.111911 
L 815.67382 379.035937 
L 817.300346 399.346154 
L 818.926872 393.534177 
L 820.553398 361.932874 
L 822.179923 407.873909 
L 823.806449 387.495005 
L 825.432975 406.843604 
L 827.059501 406.885873 
L 828.686027 377.53539 
L 830.312552 400.756879 
L 831.939078 381.741148 
L 833.565604 395.140396 
L 835.19213 405.200399 
L 836.818655 365.430627 
L 838.445181 399.467677 
L 840.071707 380.124361 
L 841.698233 378.16414 
L 843.324759 391.087863 
L 844.951284 389.645436 
L 846.57781 388.609848 
L 848.204336 398.315849 
L 849.830862 393.835343 
L 851.457388 401.797751 
L 853.083913 395.843117 
L 854.710439 399.303885 
L 856.336965 377.044014 
L 857.963491 401.871722 
L 859.590016 375.025673 
L 861.216542 384.752808 
L 862.843068 379.90245 
L 864.469594 394.453526 
L 866.09612 393.021666 
L 867.722645 371.453949 
L 869.349171 374.766776 
L 870.975697 408.323016 
L 872.602223 387.214973 
L 874.228748 401.618108 
L 877.4818 379.669971 
L 879.108326 397.375365 
L 880.734852 365.272119 
L 882.361377 406.336377 
L 883.987903 404.841114 
L 885.614429 389.608451 
L 887.240955 385.534784 
L 888.86748 375.252868 
L 890.494006 373.477574 
L 892.120532 389.312568 
L 893.747058 384.166327 
L 895.373584 399.229914 
L 897.000109 371.379978 
L 898.626635 409.036304 
L 900.253161 375.406093 
L 901.879687 390.807832 
L 903.506212 370.693108 
L 905.132738 382.644646 
L 906.759264 387.162137 
L 908.38579 374.518446 
L 910.012316 373.926681 
L 911.638841 391.230521 
L 913.265367 398.574746 
L 914.891893 376.90664 
L 916.518419 380.932755 
L 918.144944 380.5312 
L 919.77147 373.863277 
L 921.397996 389.328419 
L 923.024522 394.849797 
L 924.651048 376.055978 
L 926.277573 377.112701 
L 927.904099 387.695782 
L 931.157151 377.144402 
L 932.783676 380.943322 
L 934.410202 365.657823 
L 937.663254 403.763256 
L 939.28978 381.455833 
L 940.916305 387.833156 
L 942.542831 387.753902 
L 944.169357 379.152176 
L 945.795883 391.822286 
L 947.422408 394.041404 
L 949.048934 384.895466 
L 950.67546 363.449272 
L 952.301986 389.539764 
L 953.928512 371.617741 
L 955.555037 362.878641 
L 957.181563 386.97721 
L 958.808089 384.351254 
L 960.434615 397.491605 
L 962.06114 386.718313 
L 963.687666 381.883805 
L 965.314192 382.063448 
L 966.940718 386.755299 
L 968.567244 345.765012 
L 970.193769 368.310198 
L 971.820295 377.123268 
L 973.446821 392.038914 
L 975.073347 369.319368 
L 976.699872 395.21965 
L 978.326398 370.640272 
L 979.952924 357.251591 
L 981.57945 381.181085 
L 983.205976 373.942532 
L 984.832501 380.636872 
L 986.459027 356.918723 
L 988.085553 382.449152 
L 989.712079 369.21898 
L 991.338604 389.138209 
L 992.96513 360.522149 
L 994.591656 349.976053 
L 996.218182 373.430021 
L 996.218182 373.430021 
" style="fill:none;stroke:#1f77b4;stroke-linecap:square;stroke-width:1.5;"/>
   </g>
   <g id="line2d_13">
    <path clip-path="url(#p4763631808)" d="M 184.581818 604.963325 
L 186.208344 603.610719 
L 187.83487 585.382247 
L 189.461396 576.268011 
L 191.087921 588.848298 
L 192.714447 605.290909 
L 194.340973 590.961745 
L 195.967499 586.338581 
L 197.594024 588.647521 
L 199.22055 578.080291 
L 200.847076 593.799046 
L 202.473602 541.295761 
L 204.100128 584.156448 
L 205.726653 556.850724 
L 207.353179 559.096261 
L 208.979705 563.154077 
L 210.606231 602.781192 
L 212.232756 553.083507 
L 213.859282 546.77487 
L 215.485808 558.995872 
L 217.112334 545.522653 
L 218.73886 555.529821 
L 220.365385 567.248879 
L 221.991911 551.366332 
L 223.618437 547.535711 
L 225.244963 544.397243 
L 226.871488 539.446496 
L 228.498014 562.13434 
L 230.12454 537.729321 
L 231.751066 579.866152 
L 233.377592 558.134643 
L 235.004117 489.220449 
L 236.630643 555.593224 
L 238.257169 551.170838 
L 239.883695 539.182315 
L 241.51022 524.055325 
L 243.136746 533.602817 
L 244.763272 531.716567 
L 246.389798 506.820172 
L 248.016324 563.122376 
L 249.642849 520.261689 
L 251.269375 473.765875 
L 252.895901 462.073234 
L 254.522427 549.284587 
L 256.148952 567.021684 
L 257.775478 548.756226 
L 259.402004 511.015362 
L 261.02853 482.314764 
L 262.655056 541.855824 
L 264.281581 502.429487 
L 265.908107 534.263269 
L 267.534633 532.081136 
L 269.161159 533.40204 
L 270.787684 491.497687 
L 272.41421 475.578155 
L 274.040736 543.905867 
L 275.667262 527.922931 
L 277.293788 544.629722 
L 278.920313 548.460343 
L 280.546839 513.16051 
L 282.173365 507.644416 
L 283.799891 499.851083 
L 285.426416 526.633729 
L 287.052942 492.42232 
L 288.679468 494.403676 
L 290.305994 512.600447 
L 291.93252 520.821752 
L 293.559045 520.1613 
L 295.185571 466.268425 
L 296.812097 499.058541 
L 298.438623 510.418314 
L 300.065148 479.445761 
L 301.691674 498.334686 
L 303.3182 529.407627 
L 304.944726 511.078766 
L 306.571252 524.684075 
L 308.197777 480.502484 
L 309.824303 506.027629 
L 311.450829 512.431371 
L 313.077355 501.964529 
L 314.70388 522.206059 
L 316.330406 528.382605 
L 317.956932 453.688137 
L 319.583458 481.194638 
L 321.209984 467.060967 
L 322.836509 518.639619 
L 324.463035 510.286223 
L 326.089561 480.534186 
L 327.716087 484.42821 
L 329.342612 501.108584 
L 330.969138 498.366387 
L 332.595664 453.783242 
L 334.22219 477.55951 
L 335.848716 457.154188 
L 337.475241 480.106213 
L 339.101767 504.870518 
L 340.728293 497.473456 
L 342.354819 464.915819 
L 345.60787 504.939205 
L 347.234396 464.715042 
L 348.860922 486.541656 
L 350.487448 486.314461 
L 352.113973 501.536556 
L 353.740499 467.557627 
L 355.367025 498.863047 
L 356.993551 487.334199 
L 358.620077 473.728889 
L 360.246602 496.945095 
L 361.873128 472.011714 
L 363.499654 478.521128 
L 366.752705 496.913393 
L 368.379231 496.749601 
L 370.005757 469.206115 
L 371.632283 487.534976 
L 373.258809 459.928086 
L 374.885334 527.03 
L 376.51186 555.165251 
L 378.138386 498.2977 
L 379.764912 508.73284 
L 381.391437 467.425536 
L 383.017963 523.199379 
L 384.644489 446.586958 
L 386.271015 437.404034 
L 387.897541 503.618301 
L 389.524066 495.296607 
L 391.150592 509.329889 
L 392.777118 496.548824 
L 394.403644 501.304077 
L 396.030169 564.70746 
L 397.656695 490.736847 
L 399.283221 555.165251 
L 400.909747 462.934463 
L 402.536273 494.86335 
L 404.162798 492.617814 
L 405.789324 531.256892 
L 407.41585 486.145385 
L 409.042376 517.815375 
L 410.668901 508.901916 
L 412.295427 470.162449 
L 413.921953 473.068437 
L 415.548479 482.150972 
L 417.175005 494.171197 
L 418.80153 514.645206 
L 420.428056 574.550836 
L 422.054582 487.86256 
L 423.681108 492.950682 
L 425.307633 505.398879 
L 426.934159 491.133118 
L 428.560685 545.786834 
L 430.187211 495.560788 
L 431.813737 540.302441 
L 433.440262 490.768548 
L 435.066788 496.089149 
L 436.693314 510.185835 
L 438.31984 498.334686 
L 439.946365 510.154133 
L 441.572891 494.667857 
L 443.199417 476.835655 
L 444.825943 483.767758 
L 446.452469 481.35843 
L 448.078994 515.46945 
L 449.70552 492.221543 
L 451.332046 473.797576 
L 452.958572 469.734476 
L 454.585097 485.125647 
L 456.211623 476.338995 
L 457.838149 456.261257 
L 459.464675 472.841242 
L 461.091201 488.195428 
L 462.717726 463.293749 
L 464.344252 464.746743 
L 465.970778 474.35764 
L 467.597304 466.860189 
L 469.223829 478.156559 
L 470.850355 462.701984 
L 472.476881 518.111257 
L 474.103407 459.267634 
L 475.729933 493.315251 
L 477.356458 464.419159 
L 478.982984 458.871363 
L 480.60951 476.439384 
L 482.236036 470.891588 
L 483.862561 508.109374 
L 485.489087 480.106213 
L 487.115613 473.369603 
L 488.742139 499.15893 
L 490.368665 503.021252 
L 491.99519 471.351262 
L 493.621716 481.522222 
L 495.248242 451.241823 
L 496.874768 479.842032 
L 498.501293 485.321141 
L 500.127819 537.528543 
L 501.754345 484.031939 
L 503.380871 519.104577 
L 505.007397 502.329099 
L 506.633922 507.216443 
L 508.260448 488.755491 
L 509.886974 499.322722 
L 511.5135 494.039106 
L 513.140026 523.563948 
L 514.766551 465.639674 
L 516.393077 497.013782 
L 518.019603 472.444971 
L 521.272654 510.883272 
L 522.89918 565.135433 
L 524.525706 484.597286 
L 526.152232 493.278266 
L 527.778758 487.070018 
L 529.405283 451.373913 
L 531.031809 475.181883 
L 532.658335 462.538192 
L 534.284861 459.103842 
L 535.911386 474.162146 
L 537.537912 451.606392 
L 539.164438 498.16561 
L 540.790964 535.055812 
L 542.41749 482.943514 
L 544.044015 503.750391 
L 545.670541 466.400515 
L 547.297067 475.974426 
L 548.923593 476.143501 
L 550.550118 504.638039 
L 552.176644 484.396508 
L 553.80317 508.60075 
L 555.429696 496.617511 
L 557.056222 468.809844 
L 560.309273 521.117635 
L 561.935799 462.501207 
L 563.562325 511.90301 
L 565.18885 501.171987 
L 566.815376 480.433797 
L 568.441902 481.823388 
L 571.694954 519.960523 
L 573.321479 488.98797 
L 574.948005 492.686501 
L 576.574531 497.410053 
L 578.201057 507.977283 
L 579.827582 452.298546 
L 581.454108 506.751485 
L 583.080634 483.043903 
L 584.70716 510.185835 
L 586.333686 478.716622 
L 587.960211 542.648367 
L 589.586737 473.633784 
L 591.213263 460.821017 
L 592.839789 485.749114 
L 594.466314 458.575481 
L 596.09284 509.430278 
L 597.719366 488.49131 
L 599.345892 489.019672 
L 600.972418 486.673747 
L 602.598943 477.332315 
L 604.225469 504.210066 
L 605.851995 496.152552 
L 607.478521 504.870518 
L 609.105046 491.233507 
L 610.731572 544.233451 
L 612.358098 494.995441 
L 613.984624 483.899849 
L 615.61115 533.005769 
L 617.237675 528.678488 
L 618.864201 453.487359 
L 620.490727 489.748811 
L 622.117253 492.850293 
L 623.743778 489.976006 
L 625.370304 492.950682 
L 626.99683 476.703565 
L 628.623356 527.822542 
L 630.249882 545.654744 
L 631.876407 455.500417 
L 633.502933 513.752275 
L 635.129459 489.748811 
L 636.755985 498.530179 
L 638.38251 518.243348 
L 640.009036 474.426327 
L 641.635562 481.62261 
L 643.262088 490.409263 
L 644.888614 518.607917 
L 646.515139 535.943459 
L 648.141665 475.382661 
L 649.768191 472.143805 
L 651.394717 516.827339 
L 653.021242 454.015721 
L 654.647768 492.026049 
L 656.274294 424.723358 
L 657.90082 468.577364 
L 659.527346 469.570684 
L 661.153871 485.91819 
L 662.780397 469.338205 
L 664.406923 532.609498 
L 666.033449 450.084711 
L 667.659974 489.843916 
L 669.2865 534.52745 
L 670.913026 504.807114 
L 672.539552 498.001818 
L 674.166078 502.889162 
L 675.792603 472.936347 
L 677.419129 482.150972 
L 679.045655 488.459609 
L 680.672181 518.047854 
L 682.298707 467.953898 
L 683.925232 433.937983 
L 685.551758 505.79515 
L 687.178284 519.796731 
L 688.80481 474.294236 
L 690.431335 474.061757 
L 692.057861 482.711035 
L 693.684387 506.92056 
L 695.310913 468.841545 
L 696.937439 528.979654 
L 698.563964 481.194638 
L 700.19049 456.425049 
L 701.817016 488.755491 
L 703.443542 487.503274 
L 705.070067 451.870573 
L 706.696593 465.31209 
L 708.323119 487.667066 
L 709.949645 489.843916 
L 711.576171 480.930457 
L 713.202696 518.475827 
L 714.829222 509.034006 
L 716.455748 468.11769 
L 718.082274 495.624191 
L 719.708799 498.863047 
L 721.335325 439.913752 
L 722.961851 462.865776 
L 724.588377 489.120061 
L 726.214903 538.521863 
L 727.841428 540.635309 
L 729.467954 556.94583 
L 731.09448 540.962893 
L 732.721006 541.887526 
L 734.347531 505.203385 
L 735.974057 474.917703 
L 737.600583 525.941575 
L 739.227109 476.703565 
L 740.853635 468.017301 
L 742.48016 475.514751 
L 744.106686 516.394082 
L 745.733212 488.327518 
L 747.359738 516.166887 
L 748.986263 492.818591 
L 750.612789 513.620184 
L 752.239315 516.034797 
L 753.865841 488.095039 
L 755.492367 523.331469 
L 757.118892 474.426327 
L 758.745418 500.611924 
L 760.371944 489.415943 
L 761.99847 474.822598 
L 763.624995 493.183161 
L 765.251521 500.712312 
L 766.878047 478.68492 
L 768.504573 460.424746 
L 770.131099 455.632507 
L 771.757624 466.236723 
L 773.38415 490.541353 
L 775.010676 461.481469 
L 776.637202 496.448435 
L 778.263727 459.531815 
L 779.890253 497.013782 
L 781.516779 491.101416 
L 783.143305 463.69002 
L 784.769831 482.880111 
L 786.396356 487.667066 
L 788.022882 499.91977 
L 789.649408 491.92566 
L 791.275934 507.248144 
L 792.902459 554.504799 
L 794.528985 472.212492 
L 797.782037 518.412423 
L 799.408563 489.315554 
L 801.035088 500.939508 
L 802.661614 532.477407 
L 804.28814 531.452386 
L 805.914666 505.995928 
L 807.541191 491.233507 
L 809.167717 500.712312 
L 810.794243 472.376284 
L 812.420769 508.373555 
L 814.047295 444.801096 
L 815.67382 477.92408 
L 817.300346 460.25567 
L 818.926872 498.863047 
L 820.553398 506.952262 
L 822.179923 542.780457 
L 823.806449 525.112048 
L 825.432975 479.04949 
L 827.059501 490.012992 
L 828.686027 478.917399 
L 830.312552 520.557571 
L 831.939078 495.428697 
L 833.565604 528.150126 
L 835.19213 514.217233 
L 836.818655 441.895107 
L 838.445181 510.550404 
L 840.071707 525.90459 
L 841.698233 467.060967 
L 843.324759 503.449225 
L 844.951284 462.538192 
L 846.57781 502.429487 
L 848.204336 487.302497 
L 849.830862 485.025259 
L 851.457388 497.901429 
L 853.083913 498.530179 
L 854.710439 519.632939 
L 856.336965 464.350472 
L 857.963491 460.25567 
L 859.590016 487.434587 
L 861.216542 463.55793 
L 862.843068 470.659109 
L 864.469594 487.667066 
L 866.09612 485.321141 
L 867.722645 501.404466 
L 869.349171 483.043903 
L 870.975697 541.264059 
L 872.602223 456.493736 
L 874.228748 505.03431 
L 875.855274 479.773345 
L 877.4818 462.538192 
L 879.108326 476.338995 
L 880.734852 439.649571 
L 882.361377 525.180735 
L 883.987903 512.827642 
L 885.614429 475.218869 
L 887.240955 519.268369 
L 888.86748 484.861467 
L 890.494006 453.556046 
L 892.120532 500.247354 
L 893.747058 457.418369 
L 895.373584 485.685711 
L 897.000109 456.789619 
L 898.626635 478.288649 
L 900.253161 527.193792 
L 901.879687 482.547243 
L 903.506212 456.393348 
L 905.132738 447.178723 
L 906.759264 527.325882 
L 908.38579 471.351262 
L 910.012316 457.450071 
L 911.638841 475.61514 
L 913.265367 487.534976 
L 914.891893 487.302497 
L 916.518419 504.442545 
L 918.144944 456.361646 
L 919.77147 488.163726 
L 921.397996 486.346163 
L 923.024522 472.275895 
L 924.651048 474.653522 
L 926.277573 520.488884 
L 927.904099 469.369907 
L 929.530625 505.763449 
L 931.157151 450.153398 
L 932.783676 469.369907 
L 934.410202 465.639674 
L 936.036728 494.699558 
L 937.663254 484.364807 
L 939.28978 482.087569 
L 940.916305 470.891588 
L 942.542831 487.635365 
L 944.169357 494.768245 
L 945.795883 515.60154 
L 947.422408 462.104936 
L 949.048934 467.12437 
L 950.67546 487.006614 
L 952.301986 493.378654 
L 953.928512 480.634574 
L 955.555037 461.544873 
L 957.181563 486.906226 
L 958.808089 507.448922 
L 960.434615 482.811424 
L 962.06114 531.22519 
L 963.687666 475.842335 
L 965.314192 450.253787 
L 966.940718 488.126741 
L 968.567244 494.007405 
L 970.193769 433.874579 
L 971.820295 460.223969 
L 973.446821 478.219962 
L 975.073347 486.541656 
L 976.699872 478.320351 
L 978.326398 457.714251 
L 979.952924 450.613073 
L 981.57945 502.624981 
L 983.205976 474.193847 
L 984.832501 478.949101 
L 986.459027 478.42074 
L 988.085553 499.391409 
L 989.712079 498.863047 
L 991.338604 478.949101 
L 992.96513 506.355213 
L 994.591656 454.544082 
L 996.218182 489.48463 
L 996.218182 489.48463 
" style="fill:none;stroke:#ff7f0e;stroke-linecap:square;stroke-width:1.5;"/>
   </g>
   <g id="line2d_14">
    <path clip-path="url(#p4763631808)" d="M 184.581818 463.129957 
L 186.208344 503.385822 
L 187.83487 455.040742 
L 189.461396 487.038316 
L 191.087921 457.846342 
L 192.714447 464.651638 
L 194.340973 463.161659 
L 195.967499 377.03873 
L 197.594024 443.348102 
L 199.22055 416.369962 
L 200.847076 385.196632 
L 202.473602 402.33668 
L 204.100128 417.294595 
L 205.726653 409.83413 
L 207.353179 389.423524 
L 208.979705 396.292224 
L 212.232756 403.821376 
L 213.859282 365.150596 
L 215.485808 372.716733 
L 217.112334 387.738051 
L 218.73886 280.977321 
L 220.365385 393.882896 
L 221.991911 341.210535 
L 223.618437 375.057374 
L 225.244963 330.014554 
L 226.871488 342.203855 
L 228.498014 292.765067 
L 230.12454 365.615554 
L 231.751066 340.185514 
L 233.377592 289.827377 
L 235.004117 278.00793 
L 236.630643 300.030038 
L 238.257169 348.179624 
L 239.883695 297.456917 
L 241.51022 304.6215 
L 243.136746 266.415678 
L 244.763272 254.030883 
L 246.389798 279.656417 
L 248.016324 268.365332 
L 249.642849 213.611227 
L 251.269375 275.498212 
L 252.895901 301.45133 
L 254.522427 248.055115 
L 256.148952 283.323246 
L 257.775478 334.806793 
L 259.402004 246.998392 
L 261.02853 296.136013 
L 262.655056 208.031729 
L 264.281581 317.899225 
L 265.908107 303.501373 
L 267.534633 347.054214 
L 269.161159 263.044731 
L 270.787684 285.336304 
L 272.41421 255.748058 
L 274.040736 308.6846 
L 275.667262 292.500886 
L 277.293788 316.145064 
L 278.920313 272.687329 
L 280.546839 300.82258 
L 282.173365 308.055849 
L 283.799891 260.999972 
L 285.426416 324.900015 
L 287.052942 323.674216 
L 288.679468 317.598059 
L 290.305994 291.481148 
L 291.93252 280.845231 
L 293.559045 329.586582 
L 295.185571 256.244718 
L 296.812097 295.771444 
L 298.438623 326.353009 
L 300.065148 187.885304 
L 301.691674 281.405294 
L 303.3182 223.253825 
L 304.944726 280.184779 
L 306.571252 200.502577 
L 308.197777 277.875839 
L 309.824303 283.983698 
L 311.450829 252.414097 
L 313.077355 264.598114 
L 314.70388 312.282742 
L 316.330406 279.656417 
L 317.956932 226.291903 
L 319.583458 287.518437 
L 321.209984 303.105102 
L 322.836509 327.145551 
L 324.463035 234.185625 
L 326.089561 228.474037 
L 327.716087 249.936082 
L 329.342612 283.719518 
L 330.969138 296.104312 
L 332.595664 258.389866 
L 334.22219 283.983698 
L 335.848716 150.044052 
L 337.475241 326.812684 
L 339.101767 340.285902 
L 340.728293 283.782921 
L 342.354819 249.344317 
L 343.981345 273.347781 
L 345.60787 306.106195 
L 347.234396 276.951206 
L 348.860922 283.915011 
L 350.487448 299.042002 
L 352.113973 298.444953 
L 353.740499 234.153923 
L 355.367025 291.576253 
L 358.620077 232.568838 
L 360.246602 307.596175 
L 361.873128 327.837705 
L 363.499654 306.766647 
L 365.12618 292.802052 
L 366.752705 307.82337 
L 368.379231 263.113418 
L 370.005757 245.413307 
L 371.632283 277.01461 
L 373.258809 273.21569 
L 374.885334 316.974592 
L 376.51186 246.501732 
L 378.138386 314.031618 
L 379.764912 260.70409 
L 381.391437 224.210159 
L 383.017963 276.914221 
L 384.644489 232.399763 
L 386.271015 265.491045 
L 387.897541 313.936513 
L 389.524066 239.796824 
L 391.150592 281.769864 
L 392.777118 261.031674 
L 394.403644 284.575463 
L 396.030169 173.091181 
L 397.656695 201.987273 
L 399.283221 286.028457 
L 400.909747 282.197836 
L 402.536273 273.680649 
L 404.162798 215.492194 
L 405.789324 297.784501 
L 407.41585 280.08439 
L 409.042376 212.454115 
L 410.668901 301.683809 
L 412.295427 279.128056 
L 413.921953 305.614819 
L 415.548479 265.919018 
L 417.175005 292.569573 
L 418.80153 298.217758 
L 420.428056 327.541822 
L 422.054582 282.826587 
L 423.681108 303.633463 
L 425.307633 282.662795 
L 426.934159 268.328346 
L 428.560685 271.699293 
L 430.187211 262.78055 
L 431.813737 259.383186 
L 433.440262 301.747213 
L 435.066788 302.840921 
L 436.693314 286.821 
L 438.31984 309.873413 
L 439.946365 303.696867 
L 441.572891 267.932075 
L 443.199417 310.301386 
L 444.825943 291.084877 
L 446.452469 288.210591 
L 448.078994 220.580315 
L 449.70552 272.195953 
L 451.332046 282.794885 
L 452.958572 304.75359 
L 454.585097 331.272055 
L 456.211623 199.842125 
L 457.838149 209.981383 
L 459.464675 241.381909 
L 461.091201 269.585847 
L 462.717726 285.537081 
L 464.344252 266.84365 
L 465.970778 301.8159 
L 467.597304 270.542181 
L 469.223829 260.767493 
L 470.850355 236.003188 
L 472.476881 224.775506 
L 474.103407 309.508844 
L 475.729933 224.675117 
L 477.356458 254.823426 
L 478.982984 315.257417 
L 480.60951 236.230384 
L 482.236036 323.806307 
L 483.862561 253.703299 
L 485.489087 312.182353 
L 487.115613 251.357374 
L 488.742139 288.273994 
L 490.368665 196.904435 
L 491.99519 264.962683 
L 493.621716 237.752065 
L 495.248242 283.254559 
L 496.874768 251.621555 
L 498.501293 229.430371 
L 500.127819 297.161035 
L 501.754345 237.355794 
L 503.380871 272.623926 
L 505.007397 295.010603 
L 508.260448 237.783767 
L 511.5135 284.279581 
L 513.140026 298.777821 
L 514.766551 284.675852 
L 516.393077 279.027667 
L 518.019603 203.86824 
L 519.646129 284.744539 
L 521.272654 248.615178 
L 522.89918 198.024562 
L 524.525706 270.705973 
L 526.152232 282.562406 
L 527.778758 312.483519 
L 529.405283 255.848447 
L 531.031809 275.498212 
L 532.658335 270.441792 
L 534.284861 254.855127 
L 535.911386 278.103035 
L 537.537912 334.901899 
L 539.164438 296.167715 
L 540.790964 246.137162 
L 542.41749 230.946768 
L 544.044015 243.960313 
L 545.670541 230.090823 
L 547.297067 281.241502 
L 548.923593 275.001552 
L 550.550118 256.540601 
L 552.176644 253.270043 
L 553.80317 247.627142 
L 555.429696 291.708344 
L 557.056222 277.706763 
L 558.682747 316.673426 
L 560.309273 263.673481 
L 561.935799 343.42437 
L 563.562325 274.20901 
L 565.18885 262.352578 
L 566.815376 263.969364 
L 568.441902 303.992749 
L 570.068428 289.367702 
L 571.694954 276.882519 
L 573.321479 292.437483 
L 574.948005 278.039631 
L 576.574531 296.067326 
L 578.201057 299.834544 
L 579.827582 315.421209 
L 581.454108 281.738162 
L 583.080634 318.855559 
L 584.70716 221.504948 
L 586.333686 256.176031 
L 589.586737 318.559677 
L 591.213263 328.630247 
L 592.839789 289.003133 
L 594.466314 316.773815 
L 596.09284 275.561616 
L 597.719366 301.652108 
L 599.345892 226.2285 
L 600.972418 307.199904 
L 602.598943 244.224494 
L 604.225469 311.426796 
L 605.851995 278.039631 
L 607.478521 233.921444 
L 609.105046 279.989285 
L 610.731572 334.209745 
L 612.358098 269.485458 
L 613.984624 283.619129 
L 615.61115 275.165344 
L 617.237675 346.959109 
L 618.864201 236.66364 
L 620.490727 322.485403 
L 622.117253 252.873772 
L 623.743778 277.1467 
L 625.370304 304.986069 
L 626.99683 249.243928 
L 628.623356 331.108263 
L 630.249882 315.748793 
L 631.876407 268.793305 
L 633.502933 276.882519 
L 635.129459 262.056695 
L 636.755985 300.627086 
L 638.38251 301.94799 
L 640.009036 303.596478 
L 641.635562 183.034945 
L 643.262088 312.25104 
L 644.888614 241.022623 
L 646.515139 144.892527 
L 648.141665 265.654837 
L 649.768191 295.07929 
L 651.394717 289.198627 
L 653.021242 335.694441 
L 654.647768 251.193582 
L 656.274294 275.825796 
L 657.90082 276.819116 
L 659.527346 264.598114 
L 661.153871 279.788508 
L 662.780397 287.386347 
L 664.406923 338.172456 
L 666.033449 283.059066 
L 667.659974 235.702022 
L 669.2865 273.0836 
L 670.913026 283.254559 
L 672.539552 268.957097 
L 674.166078 233.292694 
L 675.792603 271.995175 
L 677.419129 275.234031 
L 679.045655 286.361325 
L 680.672181 305.810313 
L 682.298707 231.210949 
L 683.925232 268.925395 
L 685.551758 271.007139 
L 687.178284 232.135582 
L 688.80481 313.106986 
L 690.431335 250.892416 
L 692.057861 227.876988 
L 693.684387 276.454547 
L 695.310913 256.968574 
L 696.937439 294.022567 
L 698.563964 291.64494 
L 700.19049 274.636983 
L 701.817016 294.286748 
L 703.443542 349.468826 
L 705.070067 292.041212 
L 706.696593 257.829803 
L 708.323119 308.81669 
L 709.949645 298.481939 
L 711.576171 295.343471 
L 713.202696 268.064166 
L 714.829222 218.699348 
L 716.455748 291.481148 
L 718.082274 249.936082 
L 719.708799 329.819061 
L 721.335325 309.244663 
L 722.961851 272.423148 
L 724.588377 297.028944 
L 726.214903 280.316869 
L 727.841428 236.431161 
L 729.467954 275.498212 
L 731.09448 306.074494 
L 732.721006 300.426309 
L 734.347531 239.833809 
L 735.974057 312.018561 
L 737.600583 262.616758 
L 739.227109 230.022136 
L 740.853635 241.646089 
L 742.48016 268.925395 
L 744.106686 312.974895 
L 745.733212 296.199417 
L 747.359738 197.696978 
L 748.986263 255.219697 
L 750.612789 296.500583 
L 752.239315 250.797311 
L 753.865841 111.109091 
L 755.492367 310.137594 
L 757.118892 224.971 
L 758.745418 263.837273 
L 760.371944 295.671055 
L 761.99847 280.385556 
L 763.624995 294.350151 
L 765.251521 257.893206 
L 766.878047 279.096354 
L 768.504573 204.893262 
L 770.131099 292.104615 
L 771.757624 274.969851 
L 773.38415 248.683865 
L 775.010676 301.255837 
L 776.637202 293.261727 
L 778.263727 279.989285 
L 779.890253 327.869407 
L 783.143305 229.462073 
L 784.769831 322.55409 
L 786.396356 254.427155 
L 788.022882 293.330414 
L 789.649408 275.957887 
L 791.275934 301.18715 
L 792.902459 306.174882 
L 794.528985 230.455392 
L 796.155511 193.866357 
L 797.782037 280.285168 
L 799.408563 191.885001 
L 801.035088 305.709924 
L 802.661614 261.100361 
L 804.28814 302.772234 
L 805.914666 246.734211 
L 807.541191 268.233241 
L 809.167717 338.072068 
L 810.794243 307.923759 
L 812.420769 312.38313 
L 814.047295 234.978167 
L 815.67382 249.967783 
L 817.300346 290.651621 
L 818.926872 292.041212 
L 820.553398 152.352992 
L 822.179923 265.126476 
L 823.806449 297.456917 
L 825.432975 284.14749 
L 827.059501 274.605281 
L 828.686027 261.364541 
L 830.312552 321.396978 
L 831.939078 290.820696 
L 833.565604 304.917382 
L 835.19213 308.880093 
L 836.818655 257.629025 
L 838.445181 324.403355 
L 840.071707 255.320086 
L 841.698233 249.539811 
L 843.324759 260.138743 
L 844.951284 293.129636 
L 846.57781 272.423148 
L 848.204336 283.254559 
L 849.830862 279.159758 
L 851.457388 268.560825 
L 853.083913 216.881785 
L 854.710439 238.047947 
L 856.336965 230.254615 
L 857.963491 305.482729 
L 859.590016 231.707609 
L 861.216542 316.509634 
L 862.843068 258.389866 
L 864.469594 295.708041 
L 866.09612 276.951206 
L 867.722645 247.627142 
L 869.349171 300.790878 
L 870.975697 269.913431 
L 872.602223 299.469975 
L 874.228748 293.626296 
L 875.855274 328.001497 
L 877.4818 218.466869 
L 879.108326 275.429525 
L 880.734852 205.321234 
L 882.361377 250.03647 
L 883.987903 266.415678 
L 885.614429 267.440699 
L 887.240955 250.200262 
L 888.86748 253.402133 
L 890.494006 245.281217 
L 892.120532 282.234822 
L 893.747058 303.665165 
L 895.373584 270.01382 
L 897.000109 207.566771 
L 898.626635 311.590588 
L 900.253161 231.311338 
L 901.879687 270.177612 
L 903.506212 256.308122 
L 905.132738 248.319295 
L 906.759264 262.849237 
L 908.38579 246.105461 
L 910.012316 251.753645 
L 911.638841 285.235915 
L 913.265367 289.330717 
L 914.891893 261.327556 
L 916.518419 272.026877 
L 918.144944 246.665524 
L 919.77147 182.406195 
L 921.397996 280.216481 
L 923.024522 313.804423 
L 924.651048 213.907109 
L 926.277573 210.245564 
L 927.904099 241.91027 
L 929.530625 238.116634 
L 931.157151 284.807942 
L 932.783676 230.719573 
L 934.410202 285.368006 
L 936.036728 232.833019 
L 937.663254 304.161825 
L 939.28978 266.912337 
L 940.916305 278.964264 
L 942.542831 259.647367 
L 944.169357 257.697712 
L 945.795883 270.278 
L 947.422408 318.559677 
L 949.048934 310.829747 
L 950.67546 188.05438 
L 952.301986 197.036526 
L 955.555037 259.119005 
L 957.181563 295.607652 
L 958.808089 195.118573 
L 960.434615 271.931772 
L 962.06114 268.064166 
L 963.687666 289.198627 
L 965.314192 281.669475 
L 966.940718 310.729359 
L 968.567244 196.99954 
L 970.193769 281.57437 
L 971.820295 260.667104 
L 973.446821 258.590643 
L 975.073347 265.755226 
L 976.699872 217.60564 
L 978.326398 259.742472 
L 979.952924 275.894483 
L 981.57945 257.761116 
L 983.205976 288.210591 
L 986.459027 218.59896 
L 988.085553 255.251399 
L 989.712079 259.018616 
L 991.338604 289.563196 
L 992.96513 265.591434 
L 994.591656 200.79846 
L 996.218182 280.517647 
L 996.218182 280.517647 
" style="fill:none;stroke:#2ca02c;stroke-linecap:square;stroke-width:1.5;"/>
   </g>
   <g id="line2d_15">
    <path clip-path="url(#p4763631808)" d="M 223.618437 413.404863 
L 264.281581 359.528499 
L 304.944726 373.64841 
L 345.60787 389.869384 
L 386.271015 371.358844 
L 426.934159 351.863129 
L 467.597304 374.398298 
L 508.260448 383.727182 
L 548.923593 374.304734 
L 589.586737 376.199406 
L 630.249882 386.381373 
L 670.913026 354.979637 
L 711.576171 375.706819 
L 752.239315 365.083175 
L 792.902459 345.91631 
L 833.565604 383.454745 
L 874.228748 381.154171 
L 914.891893 394.738841 
L 955.555037 345.405836 
" style="fill:none;stroke:#d62728;stroke-linecap:square;stroke-width:1.5;"/>
   </g>
   <g id="patch_3">
    <path d="M 144 630 
L 144 86.4 
" style="fill:none;stroke:#000000;stroke-linecap:square;stroke-linejoin:miter;stroke-width:0.8;"/>
   </g>
   <g id="patch_4">
    <path d="M 1036.8 630 
L 1036.8 86.4 
" style="fill:none;stroke:#000000;stroke-linecap:square;stroke-linejoin:miter;stroke-width:0.8;"/>
   </g>
   <g id="patch_5">
    <path d="M 144 630 
L 1036.8 630 
" style="fill:none;stroke:#000000;stroke-linecap:square;stroke-linejoin:miter;stroke-width:0.8;"/>
   </g>
   <g id="patch_6">
    <path d="M 144 86.4 
L 1036.8 86.4 
" style="fill:none;stroke:#000000;stroke-linecap:square;stroke-linejoin:miter;stroke-width:0.8;"/>
   </g>
   <g id="text_14">
    <!-- doomrnn.cma.16.24 -->
    <defs>
     <path d="M 10.6875 12.40625 
L 21 12.40625 
L 21 0 
L 10.6875 0 
z
" id="DejaVuSans-2e"/>
    </defs>
    <g transform="translate(529.5225 80.4)scale(0.12 -0.12)">
     <use xlink:href="#DejaVuSans-64"/>
     <use x="63.476562" xlink:href="#DejaVuSans-6f"/>
     <use x="124.658203" xlink:href="#DejaVuSans-6f"/>
     <use x="185.839844" xlink:href="#DejaVuSans-6d"/>
     <use x="283.251953" xlink:href="#DejaVuSans-72"/>
     <use x="324.349609" xlink:href="#DejaVuSans-6e"/>
     <use x="387.728516" xlink:href="#DejaVuSans-6e"/>
     <use x="451.107422" xlink:href="#DejaVuSans-2e"/>
     <use x="482.894531" xlink:href="#DejaVuSans-63"/>
     <use x="537.875" xlink:href="#DejaVuSans-6d"/>
     <use x="635.287109" xlink:href="#DejaVuSans-61"/>
     <use x="696.566406" xlink:href="#DejaVuSans-2e"/>
     <use x="728.353516" xlink:href="#DejaVuSans-31"/>
     <use x="791.976562" xlink:href="#DejaVuSans-36"/>
     <use x="855.599609" xlink:href="#DejaVuSans-2e"/>
     <use x="887.386719" xlink:href="#DejaVuSans-32"/>
     <use x="951.009766" xlink:href="#DejaVuSans-34"/>
    </g>
   </g>
   <g id="legend_1">
    <g id="patch_7">
     <path d="M 924.329687 153.1125 
L 1029.8 153.1125 
Q 1031.8 153.1125 1031.8 151.1125 
L 1031.8 93.4 
Q 1031.8 91.4 1029.8 91.4 
L 924.329687 91.4 
Q 922.329687 91.4 922.329687 93.4 
L 922.329687 151.1125 
Q 922.329687 153.1125 924.329687 153.1125 
z
" style="fill:#ffffff;opacity:0.8;stroke:#cccccc;stroke-linejoin:miter;"/>
    </g>
    <g id="line2d_16">
     <path d="M 926.329687 99.498437 
L 946.329687 99.498437 
" style="fill:none;stroke:#1f77b4;stroke-linecap:square;stroke-width:1.5;"/>
    </g>
    <g id="line2d_17"/>
    <g id="text_15">
     <!-- mean -->
     <g transform="translate(954.329687 102.998437)scale(0.1 -0.1)">
      <use xlink:href="#DejaVuSans-6d"/>
      <use x="97.412109" xlink:href="#DejaVuSans-65"/>
      <use x="158.935547" xlink:href="#DejaVuSans-61"/>
      <use x="220.214844" xlink:href="#DejaVuSans-6e"/>
     </g>
    </g>
    <g id="line2d_18">
     <path d="M 926.329687 114.176562 
L 946.329687 114.176562 
" style="fill:none;stroke:#ff7f0e;stroke-linecap:square;stroke-width:1.5;"/>
    </g>
    <g id="line2d_19"/>
    <g id="text_16">
     <!-- min -->
     <g transform="translate(954.329687 117.676562)scale(0.1 -0.1)">
      <use xlink:href="#DejaVuSans-6d"/>
      <use x="97.412109" xlink:href="#DejaVuSans-69"/>
      <use x="125.195312" xlink:href="#DejaVuSans-6e"/>
     </g>
    </g>
    <g id="line2d_20">
     <path d="M 926.329687 128.854687 
L 946.329687 128.854687 
" style="fill:none;stroke:#2ca02c;stroke-linecap:square;stroke-width:1.5;"/>
    </g>
    <g id="line2d_21"/>
    <g id="text_17">
     <!-- max -->
     <defs>
      <path d="M 54.890625 54.6875 
L 35.109375 28.078125 
L 55.90625 0 
L 45.3125 0 
L 29.390625 21.484375 
L 13.484375 0 
L 2.875 0 
L 24.125 28.609375 
L 4.6875 54.6875 
L 15.28125 54.6875 
L 29.78125 35.203125 
L 44.28125 54.6875 
z
" id="DejaVuSans-78"/>
     </defs>
     <g transform="translate(954.329687 132.354687)scale(0.1 -0.1)">
      <use xlink:href="#DejaVuSans-6d"/>
      <use x="97.412109" xlink:href="#DejaVuSans-61"/>
      <use x="158.691406" xlink:href="#DejaVuSans-78"/>
     </g>
    </g>
    <g id="line2d_22">
     <path d="M 926.329687 143.532812 
L 946.329687 143.532812 
" style="fill:none;stroke:#d62728;stroke-linecap:square;stroke-width:1.5;"/>
    </g>
    <g id="line2d_23"/>
    <g id="text_18">
     <!-- best avg score -->
     <defs>
      <path d="M 48.6875 27.296875 
Q 48.6875 37.203125 44.609375 42.84375 
Q 40.53125 48.484375 33.40625 48.484375 
Q 26.265625 48.484375 22.1875 42.84375 
Q 18.109375 37.203125 18.109375 27.296875 
Q 18.109375 17.390625 22.1875 11.75 
Q 26.265625 6.109375 33.40625 6.109375 
Q 40.53125 6.109375 44.609375 11.75 
Q 48.6875 17.390625 48.6875 27.296875 
z
M 18.109375 46.390625 
Q 20.953125 51.265625 25.265625 53.625 
Q 29.59375 56 35.59375 56 
Q 45.5625 56 51.78125 48.09375 
Q 58.015625 40.1875 58.015625 27.296875 
Q 58.015625 14.40625 51.78125 6.484375 
Q 45.5625 -1.421875 35.59375 -1.421875 
Q 29.59375 -1.421875 25.265625 0.953125 
Q 20.953125 3.328125 18.109375 8.203125 
L 18.109375 0 
L 9.078125 0 
L 9.078125 75.984375 
L 18.109375 75.984375 
z
" id="DejaVuSans-62"/>
      <path d="M 44.28125 53.078125 
L 44.28125 44.578125 
Q 40.484375 46.53125 36.375 47.5 
Q 32.28125 48.484375 27.875 48.484375 
Q 21.1875 48.484375 17.84375 46.4375 
Q 14.5 44.390625 14.5 40.28125 
Q 14.5 37.15625 16.890625 35.375 
Q 19.28125 33.59375 26.515625 31.984375 
L 29.59375 31.296875 
Q 39.15625 29.25 43.1875 25.515625 
Q 47.21875 21.78125 47.21875 15.09375 
Q 47.21875 7.46875 41.1875 3.015625 
Q 35.15625 -1.421875 24.609375 -1.421875 
Q 20.21875 -1.421875 15.453125 -0.5625 
Q 10.6875 0.296875 5.421875 2 
L 5.421875 11.28125 
Q 10.40625 8.6875 15.234375 7.390625 
Q 20.0625 6.109375 24.8125 6.109375 
Q 31.15625 6.109375 34.5625 8.28125 
Q 37.984375 10.453125 37.984375 14.40625 
Q 37.984375 18.0625 35.515625 20.015625 
Q 33.0625 21.96875 24.703125 23.78125 
L 21.578125 24.515625 
Q 13.234375 26.265625 9.515625 29.90625 
Q 5.8125 33.546875 5.8125 39.890625 
Q 5.8125 47.609375 11.28125 51.796875 
Q 16.75 56 26.8125 56 
Q 31.78125 56 36.171875 55.265625 
Q 40.578125 54.546875 44.28125 53.078125 
z
" id="DejaVuSans-73"/>
     </defs>
     <g transform="translate(954.329687 147.032812)scale(0.1 -0.1)">
      <use xlink:href="#DejaVuSans-62"/>
      <use x="63.476562" xlink:href="#DejaVuSans-65"/>
      <use x="125" xlink:href="#DejaVuSans-73"/>
      <use x="177.099609" xlink:href="#DejaVuSans-74"/>
      <use x="216.308594" xlink:href="#DejaVuSans-20"/>
      <use x="248.095703" xlink:href="#DejaVuSans-61"/>
      <use x="309.375" xlink:href="#DejaVuSans-76"/>
      <use x="368.554688" xlink:href="#DejaVuSans-67"/>
      <use x="432.03125" xlink:href="#DejaVuSans-20"/>
      <use x="463.818359" xlink:href="#DejaVuSans-73"/>
      <use x="515.917969" xlink:href="#DejaVuSans-63"/>
      <use x="570.898438" xlink:href="#DejaVuSans-6f"/>
      <use x="632.080078" xlink:href="#DejaVuSans-72"/>
      <use x="673.162109" xlink:href="#DejaVuSans-65"/>
     </g>
    </g>
   </g>
  </g>
 </g>
 <defs>
  <clipPath id="p4763631808">
   <rect height="543.6" width="892.8" x="144" y="86.4"/>
  </clipPath>
 </defs>
</svg>
